<svg xmlns="http://www.w3.org/2000/svg" xmlns:xlink="http://www.w3.org/1999/xlink" width="40" zoomAndPan="magnify" viewBox="0 0 30 30.000001" height="40" preserveAspectRatio="xMidYMid meet" version="1.0"><defs><clipPath id="e5c441220f"><path d="M 22 9 L 28.789062 9 L 28.789062 20 L 22 20 Z M 22 9 " clip-rule="nonzero"/></clipPath><clipPath id="3afe3b8bb5"><path d="M 0.484375 9 L 7 9 L 7 20 L 0.484375 20 Z M 0.484375 9 " clip-rule="nonzero"/></clipPath></defs><path fill="#000000" d="M 16.125 16.304688 L 16.125 18.34375 L 20.589844 18.34375 L 20.589844 16.304688 L 19.378906 16.304688 L 19.378906 11.066406 L 20.589844 11.066406 L 20.589844 9.027344 L 16.125 9.027344 L 16.125 11.066406 L 17.394531 11.066406 L 17.394531 16.304688 Z M 16.125 16.304688 " fill-opacity="1" fill-rule="nonzero"/><path fill="#000000" d="M 14.746094 18.34375 L 14.746094 12.460938 C 14.746094 10.582031 13.238281 9.050781 11.355469 9.050781 C 9.476562 9.050781 7.964844 10.582031 7.964844 12.460938 L 7.964844 18.34375 L 9.949219 18.34375 L 9.949219 15.695312 L 12.816406 15.695312 L 12.816406 18.34375 Z M 9.949219 13.765625 L 9.949219 12.460938 C 9.949219 11.667969 10.589844 11.019531 11.382812 11.019531 C 12.179688 11.019531 12.816406 11.667969 12.816406 12.460938 L 12.816406 13.765625 Z M 9.949219 13.765625 " fill-opacity="1" fill-rule="nonzero"/><path fill="#000000" d="M 24.859375 22.652344 C 25.789062 20.242188 25.332031 18.046875 23.574219 16.179688 C 23.25 17.621094 22.585938 18.929688 21.671875 20.027344 C 21.277344 21.53125 20.886719 23.039062 20.496094 24.546875 C 20.332031 25.175781 20.167969 25.804688 20 26.453125 C 20.0625 26.460938 20.078125 26.464844 20.09375 26.460938 C 20.128906 26.457031 20.164062 26.453125 20.199219 26.449219 C 22.429688 26.015625 24.042969 24.761719 24.859375 22.652344 Z M 24.859375 22.652344 " fill-opacity="1" fill-rule="nonzero"/><g clip-path="url(#e5c441220f)"><path fill="#000000" d="M 22.390625 9.265625 C 23.144531 10.460938 23.632812 11.847656 23.765625 13.332031 C 24.550781 14.675781 25.339844 16.015625 26.128906 17.359375 C 26.457031 17.921875 26.785156 18.480469 27.125 19.058594 C 27.175781 19.019531 27.1875 19.011719 27.199219 18.996094 C 27.222656 18.96875 27.242188 18.941406 27.261719 18.914062 C 28.535156 17.03125 28.789062 15.003906 27.875 12.933594 C 26.832031 10.574219 24.953125 9.34375 22.390625 9.265625 Z M 22.390625 9.265625 " fill-opacity="1" fill-rule="nonzero"/></g><path fill="#000000" d="M 26.9375 8.792969 C 26.941406 8.730469 26.945312 8.710938 26.945312 8.695312 C 26.941406 8.660156 26.9375 8.625 26.933594 8.589844 C 26.5 6.359375 25.246094 4.746094 23.136719 3.929688 C 20.726562 3 18.53125 3.457031 16.664062 5.214844 C 18.101562 5.539062 19.414062 6.203125 20.507812 7.117188 C 22.015625 7.511719 23.523438 7.902344 25.03125 8.296875 C 25.660156 8.460938 26.289062 8.621094 26.9375 8.792969 Z M 26.9375 8.792969 " fill-opacity="1" fill-rule="nonzero"/><path fill="#000000" d="M 19.480469 1.589844 C 19.453125 1.566406 19.425781 1.546875 19.398438 1.527344 C 17.511719 0.253906 15.484375 0 13.417969 0.914062 C 11.054688 1.960938 9.828125 3.839844 9.75 6.402344 C 10.945312 5.644531 12.328125 5.160156 13.816406 5.027344 C 15.160156 4.238281 16.5 3.449219 17.84375 2.664062 C 18.40625 2.332031 18.964844 2.003906 19.542969 1.664062 C 19.503906 1.617188 19.492188 1.601562 19.480469 1.589844 Z M 19.480469 1.589844 " fill-opacity="1" fill-rule="nonzero"/><path fill="#000000" d="M 7.601562 8.28125 C 7.996094 6.773438 8.386719 5.265625 8.777344 3.761719 C 8.941406 3.132812 9.105469 2.5 9.273438 1.851562 C 9.210938 1.847656 9.195312 1.84375 9.179688 1.84375 C 9.144531 1.847656 9.109375 1.851562 9.074219 1.859375 C 6.84375 2.292969 5.230469 3.546875 4.414062 5.65625 C 3.484375 8.0625 3.941406 10.257812 5.699219 12.128906 C 6.023438 10.6875 6.6875 9.375 7.601562 8.28125 Z M 7.601562 8.28125 " fill-opacity="1" fill-rule="nonzero"/><g clip-path="url(#3afe3b8bb5)"><path fill="#000000" d="M 6.886719 19.042969 C 6.128906 17.84375 5.640625 16.460938 5.511719 14.972656 C 4.722656 13.632812 3.933594 12.289062 3.144531 10.945312 C 2.816406 10.386719 2.488281 9.824219 2.148438 9.246094 C 2.101562 9.285156 2.085938 9.296875 2.074219 9.308594 C 2.050781 9.335938 2.03125 9.363281 2.011719 9.390625 C 0.738281 11.277344 0.484375 13.304688 1.398438 15.371094 C 2.445312 17.734375 4.320312 18.960938 6.886719 19.042969 Z M 6.886719 19.042969 " fill-opacity="1" fill-rule="nonzero"/></g><path fill="#000000" d="M 6.136719 24.375 C 8.546875 25.308594 10.742188 24.847656 12.613281 23.09375 C 11.171875 22.765625 9.859375 22.101562 8.765625 21.1875 C 7.257812 20.796875 5.75 20.402344 4.246094 20.011719 C 3.613281 19.847656 2.984375 19.683594 2.335938 19.515625 C 2.332031 19.578125 2.328125 19.59375 2.328125 19.613281 C 2.332031 19.648438 2.335938 19.679688 2.34375 19.714844 C 2.777344 21.945312 4.03125 23.558594 6.136719 24.375 Z M 6.136719 24.375 " fill-opacity="1" fill-rule="nonzero"/><path fill="#000000" d="M 9.730469 26.640625 C 9.769531 26.691406 9.78125 26.707031 9.792969 26.714844 C 9.820312 26.738281 9.847656 26.761719 9.875 26.78125 C 11.761719 28.050781 13.789062 28.304688 15.855469 27.390625 C 18.21875 26.347656 19.445312 24.46875 19.523438 21.90625 C 18.328125 22.660156 16.945312 23.148438 15.457031 23.28125 C 14.117188 24.066406 12.773438 24.855469 11.429688 25.644531 C 10.871094 25.972656 10.308594 26.304688 9.730469 26.640625 Z M 9.730469 26.640625 " fill-opacity="1" fill-rule="nonzero"/></svg>