<svg xmlns="http://www.w3.org/2000/svg" xmlns:xlink="http://www.w3.org/1999/xlink" width="40" zoomAndPan="magnify" viewBox="0 0 30 30.000001" height="40" preserveAspectRatio="xMidYMid meet" version="1.0"><defs><clipPath id="2b1f9a5775"><path d="M 27 12 L 29.515625 12 L 29.515625 17 L 27 17 Z M 27 12 " clip-rule="nonzero"/></clipPath><clipPath id="429687d10e"><path d="M 4 0.917969 L 26 0.917969 L 26 27.773438 L 4 27.773438 Z M 4 0.917969 " clip-rule="nonzero"/></clipPath><clipPath id="5c0fe5f3fb"><path d="M 0.484375 12 L 3 12 L 3 17 L 0.484375 17 Z M 0.484375 12 " clip-rule="nonzero"/></clipPath></defs><g clip-path="url(#2b1f9a5775)"><path fill="#000000" d="M 29.28125 14.121094 L 28.035156 14.121094 L 28.035156 12.878906 C 28.035156 12.753906 27.933594 12.652344 27.804688 12.652344 C 27.679688 12.652344 27.574219 12.753906 27.574219 12.878906 L 27.574219 15.8125 C 27.574219 15.9375 27.679688 16.042969 27.804688 16.042969 C 27.933594 16.042969 28.035156 15.9375 28.035156 15.8125 L 28.035156 14.574219 L 29.28125 14.574219 C 29.410156 14.574219 29.511719 14.472656 29.511719 14.347656 C 29.511719 14.222656 29.410156 14.121094 29.28125 14.121094 Z M 29.28125 14.121094 " fill-opacity="1" fill-rule="nonzero"/></g><path fill="#000000" d="M 26.820312 10.453125 C 26.691406 10.453125 26.589844 10.554688 26.589844 10.679688 L 26.589844 18.011719 C 26.589844 18.140625 26.691406 18.242188 26.820312 18.242188 C 26.949219 18.242188 27.050781 18.140625 27.050781 18.011719 L 27.050781 10.679688 C 27.050781 10.554688 26.949219 10.453125 26.820312 10.453125 Z M 26.820312 10.453125 " fill-opacity="1" fill-rule="nonzero"/><path fill="#000000" d="M 25.835938 11.429688 C 25.707031 11.429688 25.605469 11.53125 25.605469 11.65625 L 25.605469 17.035156 C 25.605469 17.160156 25.707031 17.261719 25.835938 17.261719 C 25.960938 17.261719 26.066406 17.160156 26.066406 17.035156 L 26.066406 11.65625 C 26.066406 11.53125 25.960938 11.429688 25.835938 11.429688 Z M 25.835938 11.429688 " fill-opacity="1" fill-rule="nonzero"/><g clip-path="url(#429687d10e)"><path fill="#000000" d="M 22.902344 3.589844 C 23.125 3.878906 23.472656 4.0625 23.863281 4.0625 C 24.535156 4.0625 25.082031 3.523438 25.082031 2.859375 C 25.082031 2.191406 24.535156 1.652344 23.863281 1.652344 C 23.195312 1.652344 22.648438 2.191406 22.648438 2.859375 C 22.648438 2.972656 22.667969 3.078125 22.695312 3.183594 L 20.804688 4.121094 C 20.730469 4.160156 20.679688 4.238281 20.679688 4.324219 L 20.679688 6.085938 C 19.121094 5.027344 17.246094 4.390625 15.230469 4.34375 L 15.230469 3.308594 C 15.789062 3.199219 16.214844 2.710938 16.214844 2.125 C 16.214844 1.460938 15.671875 0.917969 15 0.917969 C 14.328125 0.917969 13.785156 1.460938 13.785156 2.125 C 13.785156 2.710938 14.210938 3.199219 14.769531 3.308594 L 14.769531 4.34375 C 12.753906 4.390625 10.878906 5.027344 9.320312 6.085938 L 9.320312 4.324219 C 9.320312 4.238281 9.269531 4.160156 9.195312 4.121094 L 7.304688 3.183594 C 7.332031 3.078125 7.351562 2.972656 7.351562 2.859375 C 7.351562 2.191406 6.804688 1.652344 6.136719 1.652344 C 5.464844 1.652344 4.917969 2.191406 4.917969 2.859375 C 4.917969 3.523438 5.464844 4.0625 6.136719 4.0625 C 6.527344 4.0625 6.875 3.878906 7.097656 3.589844 L 8.859375 4.464844 L 8.859375 6.417969 C 7.589844 7.386719 6.5625 8.648438 5.871094 10.101562 L 5.871094 7.992188 C 5.871094 7.867188 5.769531 7.765625 5.640625 7.765625 C 5.515625 7.765625 5.410156 7.867188 5.410156 7.992188 L 5.410156 11.257812 C 5.09375 12.230469 4.917969 13.269531 4.917969 14.347656 C 4.917969 15.425781 5.09375 16.460938 5.410156 17.4375 L 5.410156 20.703125 C 5.410156 20.828125 5.515625 20.929688 5.640625 20.929688 C 5.769531 20.929688 5.871094 20.828125 5.871094 20.703125 L 5.871094 18.589844 C 6.5625 20.042969 7.589844 21.304688 8.859375 22.277344 L 8.859375 24.226562 L 7.097656 25.101562 C 6.875 24.816406 6.527344 24.628906 6.136719 24.628906 C 5.464844 24.628906 4.917969 25.171875 4.917969 25.835938 C 4.917969 26.5 5.464844 27.039062 6.136719 27.039062 C 6.804688 27.039062 7.351562 26.5 7.351562 25.835938 C 7.351562 25.722656 7.332031 25.613281 7.304688 25.507812 L 9.195312 24.570312 C 9.269531 24.535156 9.320312 24.453125 9.320312 24.367188 L 9.320312 22.609375 C 10.878906 23.667969 12.753906 24.304688 14.769531 24.347656 L 14.769531 25.386719 C 14.210938 25.492188 13.785156 25.984375 13.785156 26.570312 C 13.785156 27.234375 14.328125 27.773438 15 27.773438 C 15.671875 27.773438 16.214844 27.234375 16.214844 26.570312 C 16.214844 25.984375 15.789062 25.492188 15.230469 25.386719 L 15.230469 24.347656 C 17.246094 24.304688 19.121094 23.667969 20.679688 22.609375 L 20.679688 24.367188 C 20.679688 24.453125 20.730469 24.535156 20.804688 24.570312 L 22.695312 25.507812 C 22.667969 25.613281 22.648438 25.722656 22.648438 25.835938 C 22.648438 26.5 23.195312 27.039062 23.863281 27.039062 C 24.535156 27.039062 25.082031 26.5 25.082031 25.835938 C 25.082031 25.171875 24.535156 24.628906 23.863281 24.628906 C 23.472656 24.628906 23.125 24.816406 22.902344 25.101562 L 21.140625 24.226562 L 21.140625 22.277344 C 22.410156 21.304688 23.4375 20.042969 24.128906 18.589844 L 24.128906 20.703125 C 24.128906 20.828125 24.230469 20.929688 24.359375 20.929688 C 24.484375 20.929688 24.589844 20.828125 24.589844 20.703125 L 24.589844 17.4375 C 24.90625 16.460938 25.082031 15.425781 25.082031 14.347656 C 25.082031 13.269531 24.90625 12.230469 24.589844 11.257812 L 24.589844 7.992188 C 24.589844 7.867188 24.484375 7.765625 24.359375 7.765625 C 24.230469 7.765625 24.128906 7.867188 24.128906 7.992188 L 24.128906 10.101562 C 23.4375 8.648438 22.410156 7.386719 21.140625 6.417969 L 21.140625 4.464844 Z M 24.621094 14.347656 C 24.621094 19.613281 20.304688 23.898438 15 23.898438 C 9.695312 23.898438 5.378906 19.613281 5.378906 14.347656 C 5.378906 9.082031 9.695312 4.796875 15 4.796875 C 20.304688 4.796875 24.621094 9.082031 24.621094 14.347656 Z M 24.621094 14.347656 " fill-opacity="1" fill-rule="nonzero"/></g><path fill="#000000" d="M 6.398438 14.347656 C 6.398438 19.054688 10.257812 22.886719 15 22.886719 C 19.742188 22.886719 23.601562 19.054688 23.601562 14.347656 C 23.601562 9.636719 19.742188 5.808594 15 5.808594 C 10.257812 5.808594 6.398438 9.636719 6.398438 14.347656 Z M 15 8.984375 C 13.785156 8.984375 12.800781 9.964844 12.800781 11.167969 L 12.800781 12.898438 L 11.78125 12.898438 L 11.78125 11.167969 C 11.78125 9.40625 13.226562 7.972656 15 7.972656 C 16.773438 7.972656 18.21875 9.40625 18.21875 11.167969 L 18.21875 12.898438 L 17.199219 12.898438 L 17.199219 11.167969 C 17.199219 9.964844 16.214844 8.984375 15 8.984375 Z M 10.796875 18.992188 L 10.796875 14.101562 C 10.796875 13.6875 11.136719 13.351562 11.554688 13.351562 L 18.445312 13.351562 C 18.863281 13.351562 19.203125 13.6875 19.203125 14.101562 L 19.203125 18.992188 C 19.203125 19.40625 18.863281 19.742188 18.445312 19.742188 L 11.554688 19.742188 C 11.136719 19.742188 10.796875 19.40625 10.796875 18.992188 Z M 10.796875 18.992188 " fill-opacity="1" fill-rule="nonzero"/><path fill="#000000" d="M 14.769531 17.722656 L 14.769531 18.992188 C 14.769531 19.117188 14.871094 19.21875 15 19.21875 C 15.128906 19.21875 15.230469 19.117188 15.230469 18.992188 L 15.230469 17.722656 C 15.652344 17.621094 15.96875 17.242188 15.96875 16.792969 C 15.96875 16.261719 15.535156 15.828125 15 15.828125 C 14.464844 15.828125 14.03125 16.261719 14.03125 16.792969 C 14.03125 17.242188 14.347656 17.621094 14.769531 17.722656 Z M 14.769531 17.722656 " fill-opacity="1" fill-rule="nonzero"/><path fill="#000000" d="M 4.164062 11.429688 C 4.039062 11.429688 3.933594 11.53125 3.933594 11.65625 L 3.933594 17.035156 C 3.933594 17.160156 4.039062 17.261719 4.164062 17.261719 C 4.292969 17.261719 4.394531 17.160156 4.394531 17.035156 L 4.394531 11.65625 C 4.394531 11.53125 4.292969 11.429688 4.164062 11.429688 Z M 4.164062 11.429688 " fill-opacity="1" fill-rule="nonzero"/><path fill="#000000" d="M 3.179688 10.453125 C 3.050781 10.453125 2.949219 10.554688 2.949219 10.679688 L 2.949219 18.011719 C 2.949219 18.140625 3.050781 18.242188 3.179688 18.242188 C 3.308594 18.242188 3.410156 18.140625 3.410156 18.011719 L 3.410156 10.679688 C 3.410156 10.554688 3.308594 10.453125 3.179688 10.453125 Z M 3.179688 10.453125 " fill-opacity="1" fill-rule="nonzero"/><g clip-path="url(#5c0fe5f3fb)"><path fill="#000000" d="M 2.195312 12.652344 C 2.066406 12.652344 1.964844 12.753906 1.964844 12.878906 L 1.964844 14.121094 L 0.71875 14.121094 C 0.589844 14.121094 0.488281 14.222656 0.488281 14.347656 C 0.488281 14.472656 0.589844 14.574219 0.71875 14.574219 L 1.964844 14.574219 L 1.964844 15.8125 C 1.964844 15.9375 2.066406 16.042969 2.195312 16.042969 C 2.320312 16.042969 2.425781 15.9375 2.425781 15.8125 L 2.425781 12.878906 C 2.425781 12.753906 2.320312 12.652344 2.195312 12.652344 Z M 2.195312 12.652344 " fill-opacity="1" fill-rule="nonzero"/></g></svg>