<svg xmlns="http://www.w3.org/2000/svg" xmlns:xlink="http://www.w3.org/1999/xlink" width="40" zoomAndPan="magnify" viewBox="0 0 30 30.000001" height="40" preserveAspectRatio="xMidYMid meet" version="1.0"><defs><clipPath id="3a41fd0362"><path d="M 0.484375 20 L 10 20 L 10 29.03125 L 0.484375 29.03125 Z M 0.484375 20 " clip-rule="nonzero"/></clipPath><clipPath id="2b9b104d69"><path d="M 0.484375 13 L 7 13 L 7 16 L 0.484375 16 Z M 0.484375 13 " clip-rule="nonzero"/></clipPath><clipPath id="afe6784b59"><path d="M 23 13 L 29.515625 13 L 29.515625 16 L 23 16 Z M 23 13 " clip-rule="nonzero"/></clipPath><clipPath id="be23a9a885"><path d="M 0.484375 0 L 10 0 L 10 9 L 0.484375 9 Z M 0.484375 0 " clip-rule="nonzero"/></clipPath><clipPath id="fcced4d75c"><path d="M 20 20 L 29.515625 20 L 29.515625 29.03125 L 20 29.03125 Z M 20 20 " clip-rule="nonzero"/></clipPath><clipPath id="a3c3ec3345"><path d="M 20 0 L 29.515625 0 L 29.515625 9 L 20 9 Z M 20 0 " clip-rule="nonzero"/></clipPath><clipPath id="1444f9a3db"><path d="M 13 22 L 17 22 L 17 29.03125 L 13 29.03125 Z M 13 22 " clip-rule="nonzero"/></clipPath></defs><g clip-path="url(#3a41fd0362)"><path fill="#000000" d="M 2.8125 29.011719 C 3.117188 29.011719 3.410156 28.953125 3.6875 28.839844 C 3.96875 28.722656 4.214844 28.558594 4.429688 28.34375 C 4.644531 28.128906 4.808594 27.878906 4.925781 27.601562 C 5.039062 27.320312 5.097656 27.027344 5.097656 26.722656 C 5.097656 26.191406 4.925781 25.71875 4.589844 25.304688 L 9.269531 20.621094 C 9.144531 20.503906 9.023438 20.382812 8.910156 20.261719 L 4.234375 24.945312 C 3.820312 24.605469 3.347656 24.4375 2.8125 24.433594 C 2.511719 24.433594 2.21875 24.492188 1.9375 24.609375 C 1.660156 24.726562 1.410156 24.890625 1.199219 25.105469 C 0.984375 25.320312 0.816406 25.566406 0.703125 25.847656 C 0.585938 26.128906 0.527344 26.421875 0.527344 26.722656 C 0.527344 27.027344 0.585938 27.320312 0.703125 27.601562 C 0.816406 27.882812 0.984375 28.128906 1.199219 28.34375 C 1.410156 28.558594 1.660156 28.722656 1.9375 28.839844 C 2.21875 28.957031 2.511719 29.011719 2.8125 29.011719 Z M 2.8125 29.011719 " fill-opacity="1" fill-rule="nonzero"/></g><g clip-path="url(#2b9b104d69)"><path fill="#000000" d="M 1.796875 15.789062 C 2.101562 15.789062 2.367188 15.691406 2.601562 15.5 C 2.835938 15.308594 2.980469 15.066406 3.042969 14.769531 L 6.636719 14.769531 C 6.632812 14.683594 6.621094 14.601562 6.621094 14.515625 C 6.621094 14.429688 6.632812 14.347656 6.636719 14.261719 L 3.042969 14.261719 C 3.011719 14.105469 2.949219 13.957031 2.863281 13.820312 C 2.773438 13.6875 2.664062 13.574219 2.535156 13.480469 C 2.402344 13.386719 2.257812 13.320312 2.101562 13.28125 C 1.945312 13.242188 1.789062 13.234375 1.628906 13.253906 C 1.46875 13.277344 1.320312 13.328125 1.179688 13.40625 C 1.039062 13.484375 0.917969 13.585938 0.816406 13.710938 C 0.714844 13.835938 0.636719 13.976562 0.589844 14.128906 C 0.539062 14.28125 0.519531 14.441406 0.53125 14.601562 C 0.542969 14.761719 0.582031 14.914062 0.652344 15.0625 C 0.71875 15.207031 0.8125 15.335938 0.929688 15.445312 C 1.046875 15.554688 1.183594 15.640625 1.332031 15.699219 C 1.480469 15.757812 1.636719 15.789062 1.796875 15.789062 Z M 1.796875 15.789062 " fill-opacity="1" fill-rule="nonzero"/></g><g clip-path="url(#afe6784b59)"><path fill="#000000" d="M 28.207031 13.246094 C 27.90625 13.246094 27.640625 13.339844 27.40625 13.53125 C 27.171875 13.722656 27.023438 13.964844 26.964844 14.261719 L 23.371094 14.261719 C 23.375 14.347656 23.382812 14.429688 23.382812 14.515625 C 23.382812 14.601562 23.375 14.683594 23.371094 14.769531 L 26.964844 14.769531 C 26.996094 14.929688 27.054688 15.074219 27.144531 15.210938 C 27.230469 15.34375 27.339844 15.460938 27.472656 15.554688 C 27.605469 15.644531 27.746094 15.710938 27.902344 15.75 C 28.058594 15.789062 28.21875 15.796875 28.378906 15.777344 C 28.539062 15.753906 28.6875 15.703125 28.828125 15.625 C 28.96875 15.546875 29.089844 15.445312 29.191406 15.320312 C 29.292969 15.195312 29.367188 15.054688 29.417969 14.902344 C 29.464844 14.75 29.484375 14.59375 29.476562 14.429688 C 29.464844 14.269531 29.425781 14.117188 29.355469 13.972656 C 29.285156 13.824219 29.191406 13.699219 29.074219 13.585938 C 28.957031 13.476562 28.824219 13.390625 28.675781 13.332031 C 28.523438 13.273438 28.371094 13.246094 28.207031 13.246094 Z M 28.207031 13.246094 " fill-opacity="1" fill-rule="nonzero"/></g><path fill="#000000" d="M 14.75 2.535156 L 14.75 6.136719 C 14.835938 6.132812 14.917969 6.121094 15.003906 6.121094 C 15.089844 6.121094 15.171875 6.132812 15.257812 6.136719 L 15.257812 2.535156 C 15.464844 2.496094 15.648438 2.40625 15.8125 2.269531 C 15.976562 2.136719 16.097656 1.96875 16.179688 1.773438 C 16.257812 1.578125 16.289062 1.375 16.265625 1.164062 C 16.246094 0.953125 16.175781 0.757812 16.058594 0.582031 C 15.941406 0.40625 15.789062 0.269531 15.601562 0.167969 C 15.414062 0.0703125 15.214844 0.0195312 15.003906 0.0195312 C 14.792969 0.0195312 14.59375 0.0703125 14.40625 0.167969 C 14.21875 0.269531 14.066406 0.40625 13.949219 0.582031 C 13.832031 0.757812 13.761719 0.953125 13.738281 1.164062 C 13.71875 1.375 13.75 1.578125 13.828125 1.773438 C 13.910156 1.96875 14.03125 2.136719 14.195312 2.269531 C 14.355469 2.40625 14.542969 2.496094 14.75 2.535156 Z M 14.75 2.535156 " fill-opacity="1" fill-rule="nonzero"/><g clip-path="url(#be23a9a885)"><path fill="#000000" d="M 2.8125 4.597656 C 3.347656 4.59375 3.820312 4.425781 4.234375 4.089844 L 8.910156 8.773438 C 9.027344 8.648438 9.144531 8.527344 9.269531 8.414062 L 4.589844 3.730469 C 4.925781 3.316406 5.097656 2.839844 5.097656 2.308594 C 5.097656 2.003906 5.042969 1.710938 4.925781 1.433594 C 4.808594 1.152344 4.644531 0.902344 4.429688 0.6875 C 4.214844 0.472656 3.96875 0.308594 3.6875 0.191406 C 3.410156 0.078125 3.117188 0.0195312 2.8125 0.0195312 C 2.511719 0.0195312 2.21875 0.078125 1.9375 0.191406 C 1.660156 0.308594 1.410156 0.472656 1.199219 0.6875 C 0.984375 0.902344 0.816406 1.152344 0.703125 1.433594 C 0.585938 1.710938 0.527344 2.003906 0.527344 2.308594 C 0.527344 2.609375 0.585938 2.902344 0.703125 3.183594 C 0.816406 3.464844 0.984375 3.710938 1.199219 3.925781 C 1.410156 4.140625 1.660156 4.304688 1.9375 4.421875 C 2.21875 4.539062 2.511719 4.597656 2.8125 4.597656 Z M 2.8125 4.597656 " fill-opacity="1" fill-rule="nonzero"/></g><g clip-path="url(#fcced4d75c)"><path fill="#000000" d="M 27.191406 24.433594 C 26.660156 24.4375 26.1875 24.605469 25.773438 24.945312 L 21.097656 20.261719 C 20.980469 20.382812 20.859375 20.503906 20.738281 20.621094 L 25.414062 25.304688 C 25.078125 25.71875 24.910156 26.191406 24.90625 26.722656 C 24.90625 27.027344 24.964844 27.320312 25.082031 27.601562 C 25.195312 27.882812 25.363281 28.128906 25.578125 28.34375 C 25.789062 28.558594 26.039062 28.722656 26.316406 28.839844 C 26.597656 28.957031 26.890625 29.011719 27.191406 29.011719 C 27.496094 29.011719 27.789062 28.957031 28.066406 28.839844 C 28.347656 28.722656 28.59375 28.558594 28.808594 28.34375 C 29.023438 28.128906 29.1875 27.882812 29.304688 27.601562 C 29.421875 27.320312 29.476562 27.027344 29.476562 26.722656 C 29.476562 26.421875 29.421875 26.128906 29.304688 25.847656 C 29.1875 25.566406 29.023438 25.320312 28.808594 25.105469 C 28.59375 24.890625 28.347656 24.726562 28.066406 24.609375 C 27.789062 24.492188 27.496094 24.433594 27.191406 24.433594 Z M 27.191406 24.433594 " fill-opacity="1" fill-rule="nonzero"/></g><path fill="#000000" d="M 9.839844 20.453125 C 9.949219 17.402344 11.992188 15.367188 15.003906 15.367188 C 18.011719 15.367188 20.058594 17.402344 20.164062 20.453125 C 20.566406 20.105469 20.929688 19.71875 21.253906 19.296875 C 21.578125 18.871094 21.855469 18.417969 22.085938 17.941406 C 22.320312 17.460938 22.5 16.960938 22.632812 16.445312 C 22.765625 15.929688 22.84375 15.402344 22.867188 14.871094 C 22.890625 14.339844 22.863281 13.808594 22.78125 13.28125 C 22.699219 12.753906 22.5625 12.242188 22.378906 11.742188 C 22.191406 11.242188 21.957031 10.765625 21.675781 10.316406 C 21.390625 9.863281 21.066406 9.445312 20.699219 9.058594 C 20.332031 8.671875 19.929688 8.328125 19.492188 8.023438 C 19.054688 7.71875 18.589844 7.464844 18.101562 7.253906 C 17.609375 7.042969 17.105469 6.886719 16.585938 6.777344 C 16.0625 6.671875 15.535156 6.617188 15.003906 6.617188 C 14.472656 6.617188 13.945312 6.671875 13.421875 6.777344 C 12.902344 6.886719 12.394531 7.042969 11.90625 7.253906 C 11.417969 7.464844 10.953125 7.71875 10.515625 8.023438 C 10.078125 8.328125 9.675781 8.671875 9.308594 9.058594 C 8.941406 9.445312 8.613281 9.863281 8.332031 10.316406 C 8.050781 10.765625 7.816406 11.242188 7.628906 11.742188 C 7.441406 12.242188 7.308594 12.753906 7.226562 13.28125 C 7.144531 13.808594 7.113281 14.339844 7.140625 14.871094 C 7.164062 15.402344 7.242188 15.929688 7.375 16.445312 C 7.503906 16.960938 7.6875 17.460938 7.917969 17.941406 C 8.152344 18.417969 8.429688 18.871094 8.753906 19.296875 C 9.078125 19.71875 9.4375 20.105469 9.839844 20.453125 Z M 15.003906 8.667969 C 15.339844 8.667969 15.664062 8.730469 15.976562 8.859375 C 16.285156 8.988281 16.5625 9.171875 16.800781 9.410156 C 17.035156 9.648438 17.21875 9.925781 17.347656 10.238281 C 17.476562 10.546875 17.542969 10.871094 17.542969 11.210938 C 17.542969 11.546875 17.476562 11.871094 17.347656 12.183594 C 17.21875 12.496094 17.035156 12.769531 16.800781 13.007812 C 16.5625 13.246094 16.285156 13.429688 15.976562 13.558594 C 15.664062 13.6875 15.339844 13.753906 15.003906 13.753906 C 14.667969 13.753906 14.34375 13.6875 14.03125 13.558594 C 13.71875 13.429688 13.445312 13.246094 13.207031 13.007812 C 12.96875 12.769531 12.785156 12.496094 12.65625 12.183594 C 12.527344 11.871094 12.464844 11.546875 12.464844 11.210938 C 12.464844 10.871094 12.527344 10.546875 12.65625 10.238281 C 12.785156 9.925781 12.96875 9.652344 13.207031 9.410156 C 13.445312 9.171875 13.722656 8.988281 14.03125 8.859375 C 14.34375 8.730469 14.667969 8.667969 15.003906 8.667969 Z M 15.003906 8.667969 " fill-opacity="1" fill-rule="nonzero"/><path fill="#000000" d="M 19.667969 20.707031 C 19.667969 17.820312 17.792969 15.878906 15.003906 15.878906 C 12.214844 15.878906 10.339844 17.820312 10.339844 20.707031 C 10.339844 20.757812 10.339844 20.808594 10.34375 20.855469 C 11.019531 21.359375 11.753906 21.742188 12.550781 22.003906 C 13.347656 22.269531 14.164062 22.402344 15.003906 22.402344 C 15.84375 22.402344 16.660156 22.269531 17.457031 22.003906 C 18.253906 21.742188 18.988281 21.359375 19.660156 20.855469 C 19.664062 20.808594 19.667969 20.757812 19.667969 20.707031 Z M 19.667969 20.707031 " fill-opacity="1" fill-rule="nonzero"/><path fill="#000000" d="M 17.035156 11.210938 C 17.035156 11.480469 16.984375 11.738281 16.878906 11.988281 C 16.777344 12.238281 16.628906 12.457031 16.441406 12.648438 C 16.25 12.839844 16.03125 12.984375 15.78125 13.089844 C 15.53125 13.191406 15.273438 13.246094 15.003906 13.246094 C 14.734375 13.246094 14.476562 13.191406 14.226562 13.089844 C 13.976562 12.984375 13.757812 12.839844 13.566406 12.648438 C 13.375 12.457031 13.230469 12.238281 13.125 11.988281 C 13.023438 11.738281 12.972656 11.480469 12.972656 11.210938 C 12.972656 10.941406 13.023438 10.679688 13.125 10.429688 C 13.230469 10.183594 13.375 9.960938 13.566406 9.769531 C 13.757812 9.582031 13.976562 9.433594 14.226562 9.328125 C 14.476562 9.226562 14.734375 9.175781 15.003906 9.175781 C 15.273438 9.175781 15.53125 9.226562 15.78125 9.328125 C 16.03125 9.433594 16.25 9.582031 16.441406 9.769531 C 16.628906 9.960938 16.777344 10.183594 16.878906 10.429688 C 16.984375 10.679688 17.035156 10.941406 17.035156 11.210938 Z M 17.035156 11.210938 " fill-opacity="1" fill-rule="nonzero"/><g clip-path="url(#a3c3ec3345)"><path fill="#000000" d="M 21.097656 8.773438 L 25.773438 4.089844 C 26.1875 4.425781 26.660156 4.59375 27.191406 4.597656 C 27.496094 4.597656 27.789062 4.539062 28.066406 4.421875 C 28.347656 4.304688 28.59375 4.140625 28.808594 3.925781 C 29.023438 3.710938 29.1875 3.464844 29.304688 3.183594 C 29.421875 2.902344 29.476562 2.609375 29.476562 2.308594 C 29.476562 2.003906 29.421875 1.710938 29.304688 1.433594 C 29.1875 1.152344 29.023438 0.902344 28.808594 0.6875 C 28.59375 0.472656 28.347656 0.308594 28.066406 0.191406 C 27.789062 0.078125 27.496094 0.0195312 27.191406 0.0195312 C 26.890625 0.0195312 26.597656 0.078125 26.316406 0.191406 C 26.039062 0.308594 25.789062 0.472656 25.578125 0.6875 C 25.363281 0.902344 25.195312 1.152344 25.082031 1.433594 C 24.964844 1.710938 24.90625 2.003906 24.90625 2.308594 C 24.910156 2.839844 25.078125 3.316406 25.414062 3.730469 L 20.738281 8.414062 C 20.863281 8.527344 20.980469 8.648438 21.097656 8.773438 Z M 21.097656 8.773438 " fill-opacity="1" fill-rule="nonzero"/></g><g clip-path="url(#1444f9a3db)"><path fill="#000000" d="M 15.003906 22.910156 C 14.917969 22.910156 14.835938 22.898438 14.75 22.898438 L 14.75 26.496094 C 14.542969 26.539062 14.355469 26.628906 14.195312 26.761719 C 14.03125 26.898438 13.910156 27.0625 13.828125 27.257812 C 13.75 27.457031 13.71875 27.660156 13.738281 27.871094 C 13.761719 28.082031 13.832031 28.273438 13.949219 28.449219 C 14.066406 28.625 14.21875 28.765625 14.40625 28.863281 C 14.59375 28.964844 14.792969 29.015625 15.003906 29.015625 C 15.214844 29.015625 15.414062 28.964844 15.601562 28.863281 C 15.789062 28.765625 15.941406 28.625 16.058594 28.449219 C 16.175781 28.273438 16.246094 28.082031 16.265625 27.871094 C 16.289062 27.660156 16.257812 27.457031 16.179688 27.257812 C 16.097656 27.0625 15.976562 26.898438 15.8125 26.761719 C 15.648438 26.628906 15.464844 26.539062 15.257812 26.496094 L 15.257812 22.898438 C 15.171875 22.898438 15.089844 22.910156 15.003906 22.910156 Z M 15.003906 22.910156 " fill-opacity="1" fill-rule="nonzero"/></g></svg>