<svg xmlns="http://www.w3.org/2000/svg" xmlns:xlink="http://www.w3.org/1999/xlink" width="40" zoomAndPan="magnify" viewBox="0 0 30 30.000001" height="40" preserveAspectRatio="xMidYMid meet" version="1.0"><defs><clipPath id="c5fc6fbabb"><path d="M 1.933594 1.066406 L 29.515625 1.066406 L 29.515625 28.644531 L 1.933594 28.644531 Z M 1.933594 1.066406 " clip-rule="nonzero"/></clipPath></defs><g clip-path="url(#c5fc6fbabb)"><path fill="#000000" d="M 29.042969 4.753906 C 29.3125 4.808594 29.515625 5.050781 29.515625 5.332031 L 29.515625 7.886719 C 29.515625 8.175781 29.3125 8.410156 29.042969 8.46875 L 29.042969 9.101562 C 29.3125 9.160156 29.515625 9.398438 29.515625 9.683594 L 29.515625 11.203125 C 29.515625 11.488281 29.3125 11.730469 29.042969 11.785156 L 29.042969 26.347656 C 29.042969 27.609375 28.007812 28.644531 26.746094 28.644531 L 16.175781 28.644531 C 14.914062 28.644531 13.878906 27.609375 13.878906 26.347656 L 13.878906 24.542969 C 13.878906 24.425781 13.972656 24.328125 14.089844 24.328125 L 14.285156 24.328125 C 14.605469 24.328125 14.910156 24.25 15.179688 24.113281 C 15.246094 24.082031 15.320312 24.085938 15.390625 24.125 C 15.453125 24.164062 15.492188 24.230469 15.492188 24.308594 L 15.492188 26.347656 C 15.492188 26.71875 15.804688 27.03125 16.175781 27.03125 L 26.746094 27.03125 C 27.121094 27.03125 27.425781 26.722656 27.425781 26.347656 L 27.425781 3.367188 C 27.425781 2.992188 27.121094 2.679688 26.746094 2.679688 L 24.941406 2.679688 L 24.933594 2.691406 C 24.578125 3.242188 24.011719 3.554688 23.355469 3.554688 L 19.566406 3.554688 C 18.910156 3.554688 18.34375 3.246094 17.988281 2.691406 L 17.980469 2.679688 L 16.175781 2.679688 C 15.804688 2.679688 15.492188 2.992188 15.492188 3.367188 L 15.492188 8.492188 C 15.492188 8.570312 15.453125 8.636719 15.390625 8.675781 C 15.320312 8.714844 15.246094 8.71875 15.179688 8.683594 C 14.910156 8.546875 14.605469 8.472656 14.285156 8.472656 L 14.089844 8.472656 C 13.972656 8.472656 13.878906 8.378906 13.878906 8.257812 L 13.878906 3.367188 C 13.878906 2.097656 14.914062 1.066406 16.175781 1.066406 L 26.746094 1.066406 C 28.007812 1.066406 29.042969 2.097656 29.042969 3.367188 Z M 7.386719 22.335938 L 7.386719 17.839844 C 7.386719 17.578125 7.175781 17.363281 6.910156 17.363281 L 2.414062 17.363281 C 2.152344 17.363281 1.933594 17.578125 1.933594 17.839844 L 1.933594 22.335938 C 1.933594 22.597656 2.152344 22.8125 2.414062 22.8125 L 6.910156 22.8125 C 7.175781 22.8125 7.386719 22.597656 7.386719 22.335938 Z M 14.765625 22.335938 L 14.765625 17.839844 C 14.765625 17.578125 14.546875 17.363281 14.285156 17.363281 L 9.789062 17.363281 C 9.523438 17.363281 9.3125 17.578125 9.3125 17.839844 L 9.3125 22.335938 C 9.3125 22.597656 9.523438 22.8125 9.789062 22.8125 L 14.285156 22.8125 C 14.546875 22.8125 14.765625 22.597656 14.765625 22.335938 Z M 14.285156 9.984375 L 9.789062 9.984375 C 9.523438 9.984375 9.3125 10.203125 9.3125 10.460938 L 9.3125 14.960938 C 9.3125 15.222656 9.523438 15.4375 9.789062 15.4375 L 14.285156 15.4375 C 14.546875 15.4375 14.765625 15.222656 14.765625 14.960938 L 14.765625 10.460938 C 14.765625 10.203125 14.546875 9.984375 14.285156 9.984375 Z M 22.140625 14.960938 L 22.140625 10.460938 C 22.140625 10.203125 21.925781 9.984375 21.660156 9.984375 L 17.167969 9.984375 C 16.902344 9.984375 16.6875 10.203125 16.6875 10.460938 L 16.6875 14.960938 C 16.6875 15.222656 16.902344 15.4375 17.167969 15.4375 L 21.660156 15.4375 C 21.925781 15.4375 22.140625 15.222656 22.140625 14.960938 Z M 22.140625 14.960938 " fill-opacity="1" fill-rule="evenodd"/></g></svg>