<svg xmlns="http://www.w3.org/2000/svg" xmlns:xlink="http://www.w3.org/1999/xlink" width="40" zoomAndPan="magnify" viewBox="0 0 30 30.000001" height="40" preserveAspectRatio="xMidYMid meet" version="1.0"><defs><clipPath id="5bd60e07a9"><path d="M 0.484375 0 L 29.515625 0 L 29.515625 29 L 0.484375 29 Z M 0.484375 0 " clip-rule="nonzero"/></clipPath></defs><g clip-path="url(#5bd60e07a9)"><path fill="#000000" d="M 21.933594 19.519531 C 23.09375 17.890625 23.710938 15.84375 23.492188 13.644531 C 23.101562 9.679688 19.949219 6.429688 15.996094 5.941406 C 10.355469 5.242188 5.617188 9.980469 6.316406 15.617188 C 6.804688 19.570312 10.054688 22.726562 14.019531 23.117188 C 16.21875 23.335938 18.265625 22.71875 19.894531 21.558594 L 26.878906 28.503906 C 27.160156 28.785156 27.53125 28.925781 27.898438 28.925781 C 28.21875 28.925781 28.535156 28.820312 28.800781 28.609375 C 29.484375 28.058594 29.441406 26.992188 28.820312 26.371094 Z M 14.890625 20.28125 C 11.707031 20.28125 9.128906 17.699219 9.128906 14.515625 C 9.128906 11.332031 11.707031 8.753906 14.890625 8.753906 C 18.074219 8.753906 20.65625 11.332031 20.65625 14.515625 C 20.65625 17.699219 18.074219 20.28125 14.890625 20.28125 Z M 27.859375 0.109375 L 1.925781 0.109375 C 1.128906 0.109375 0.484375 0.753906 0.484375 1.550781 L 0.484375 23.160156 C 0.484375 23.957031 1.128906 24.601562 1.925781 24.601562 L 14.171875 24.601562 L 14.171875 24.5625 C 14.074219 24.554688 13.976562 24.5625 13.878906 24.550781 C 12.929688 24.457031 12.023438 24.222656 11.167969 23.882812 L 1.925781 23.882812 C 1.527344 23.882812 1.203125 23.558594 1.203125 23.160156 L 1.203125 3.710938 L 28.578125 3.710938 L 28.578125 23.160156 C 28.578125 23.414062 28.4375 23.628906 28.238281 23.757812 L 28.761719 24.277344 C 29.085938 24.011719 29.300781 23.613281 29.300781 23.160156 L 29.300781 1.550781 C 29.300781 0.753906 28.65625 0.109375 27.859375 0.109375 Z M 2.644531 1.910156 L 1.925781 1.910156 C 1.726562 1.910156 1.566406 1.746094 1.566406 1.550781 C 1.566406 1.351562 1.726562 1.1875 1.925781 1.1875 L 2.644531 1.1875 C 2.84375 1.1875 3.003906 1.351562 3.003906 1.550781 C 3.003906 1.746094 2.84375 1.910156 2.644531 1.910156 Z M 4.804688 1.910156 L 4.085938 1.910156 C 3.886719 1.910156 3.726562 1.746094 3.726562 1.550781 C 3.726562 1.351562 3.886719 1.1875 4.085938 1.1875 L 4.804688 1.1875 C 5.003906 1.1875 5.167969 1.351562 5.167969 1.550781 C 5.167969 1.746094 5.003906 1.910156 4.804688 1.910156 Z M 6.96875 1.910156 L 6.246094 1.910156 C 6.046875 1.910156 5.886719 1.746094 5.886719 1.550781 C 5.886719 1.351562 6.046875 1.1875 6.246094 1.1875 L 6.96875 1.1875 C 7.167969 1.1875 7.328125 1.351562 7.328125 1.550781 C 7.328125 1.746094 7.167969 1.910156 6.96875 1.910156 Z M 6.96875 1.910156 " fill-opacity="1" fill-rule="nonzero"/></g></svg>