<svg xmlns="http://www.w3.org/2000/svg" xmlns:xlink="http://www.w3.org/1999/xlink" width="40" zoomAndPan="magnify" viewBox="0 0 30 30.000001" height="40" preserveAspectRatio="xMidYMid meet" version="1.0"><defs><clipPath id="8170683890"><path d="M 1.828125 0.671875 L 29.40625 0.671875 L 29.40625 28.253906 L 1.828125 28.253906 Z M 1.828125 0.671875 " clip-rule="nonzero"/></clipPath></defs><g clip-path="url(#8170683890)"><path fill="#000000" d="M 25.367188 4.710938 C 22.761719 2.105469 19.300781 0.671875 15.617188 0.671875 C 11.933594 0.671875 8.46875 2.105469 5.867188 4.710938 C 3.261719 7.316406 1.828125 10.777344 1.828125 14.460938 C 1.828125 18.144531 3.261719 21.609375 5.867188 24.214844 C 8.46875 26.816406 11.933594 28.253906 15.617188 28.253906 C 19.300781 28.253906 22.761719 26.816406 25.367188 24.214844 C 27.972656 21.609375 29.40625 18.144531 29.40625 14.460938 C 29.40625 10.777344 27.972656 7.316406 25.367188 4.710938 Z M 3.351562 14.460938 C 3.351562 12.925781 3.636719 11.457031 4.15625 10.097656 L 9.113281 10.097656 C 8.890625 11.488281 8.777344 12.957031 8.777344 14.460938 C 8.777344 15.917969 8.882812 17.335938 9.09375 18.683594 L 4.101562 18.683594 C 3.617188 17.367188 3.351562 15.945312 3.351562 14.460938 Z M 10.300781 14.460938 C 10.300781 12.945312 10.425781 11.476562 10.660156 10.097656 L 14.855469 10.097656 L 14.855469 18.683594 L 10.636719 18.683594 C 10.414062 17.347656 10.300781 15.925781 10.300781 14.460938 Z M 19.222656 5.570312 C 19.640625 6.46875 19.988281 7.480469 20.257812 8.574219 L 16.378906 8.574219 L 16.378906 2.339844 C 17.414062 2.71875 18.417969 3.847656 19.222656 5.570312 Z M 14.855469 2.339844 L 14.855469 8.574219 L 10.976562 8.574219 C 11.246094 7.480469 11.59375 6.46875 12.011719 5.570312 C 12.8125 3.847656 13.820312 2.71875 14.855469 2.339844 Z M 14.855469 20.210938 L 14.855469 26.585938 C 13.820312 26.207031 12.8125 25.074219 12.011719 23.351562 C 11.574219 22.417969 11.214844 21.355469 10.941406 20.210938 Z M 16.378906 26.585938 L 16.378906 20.210938 L 20.292969 20.210938 C 20.019531 21.355469 19.660156 22.417969 19.222656 23.351562 C 18.417969 25.074219 17.414062 26.207031 16.378906 26.585938 Z M 16.378906 18.683594 L 16.378906 10.097656 L 20.574219 10.097656 C 20.808594 11.476562 20.933594 12.945312 20.933594 14.460938 C 20.933594 15.925781 20.816406 17.347656 20.597656 18.683594 Z M 22.121094 10.097656 L 27.078125 10.097656 C 27.597656 11.457031 27.882812 12.925781 27.882812 14.460938 C 27.882812 15.945312 27.617188 17.367188 27.132812 18.683594 L 22.140625 18.683594 C 22.351562 17.335938 22.457031 15.917969 22.457031 14.460938 C 22.457031 12.957031 22.339844 11.488281 22.121094 10.097656 Z M 26.375 8.574219 L 21.824219 8.574219 C 21.519531 7.242188 21.113281 6.011719 20.605469 4.925781 C 20.214844 4.085938 19.777344 3.363281 19.300781 2.761719 C 22.335938 3.71875 24.863281 5.828125 26.375 8.574219 Z M 11.933594 2.761719 C 11.457031 3.363281 11.019531 4.085938 10.628906 4.925781 C 10.121094 6.011719 9.714844 7.242188 9.410156 8.574219 L 4.859375 8.574219 C 6.367188 5.828125 8.898438 3.71875 11.933594 2.761719 Z M 4.785156 20.210938 L 9.378906 20.210938 C 9.683594 21.59375 10.105469 22.875 10.628906 23.996094 C 11.019531 24.835938 11.457031 25.558594 11.933594 26.160156 C 8.847656 25.1875 6.285156 23.023438 4.785156 20.210938 Z M 19.300781 26.160156 C 19.777344 25.558594 20.214844 24.835938 20.605469 23.996094 C 21.128906 22.875 21.550781 21.59375 21.855469 20.210938 L 26.449219 20.210938 C 24.949219 23.023438 22.386719 25.1875 19.300781 26.160156 Z M 19.300781 26.160156 " fill-opacity="1" fill-rule="nonzero"/></g></svg>