<svg xmlns="http://www.w3.org/2000/svg" xmlns:xlink="http://www.w3.org/1999/xlink" width="178" zoomAndPan="magnify" viewBox="0 0 133.5 36.000001" height="48" preserveAspectRatio="xMidYMid meet" version="1.0"><defs><g/><clipPath id="e06ddde6a8"><path d="M 1.5625 0 L 131.453125 0 L 131.453125 35.027344 L 1.5625 35.027344 Z M 1.5625 0 " clip-rule="nonzero"/></clipPath><clipPath id="f00c5172c9"><path d="M 12 4.6875 L 22 4.6875 L 22 20 L 12 20 Z M 12 4.6875 " clip-rule="nonzero"/></clipPath><clipPath id="9e5773372f"><path d="M 5.0625 10 L 19 10 L 19 24 L 5.0625 24 Z M 5.0625 10 " clip-rule="nonzero"/></clipPath><clipPath id="4e817d9e09"><path d="M 16 16 L 26 16 L 26 31.6875 L 16 31.6875 Z M 16 16 " clip-rule="nonzero"/></clipPath><clipPath id="deb588719a"><path d="M 19 12 L 32.792969 12 L 32.792969 26 L 19 26 Z M 19 12 " clip-rule="nonzero"/></clipPath></defs><g clip-path="url(#e06ddde6a8)"><path fill="#ffffff" d="M 1.5625 0 L 131.453125 0 L 131.453125 35.027344 L 1.5625 35.027344 Z M 1.5625 0 " fill-opacity="1" fill-rule="nonzero"/><path fill="#ffffff" d="M 1.5625 0 L 131.453125 0 L 131.453125 35.027344 L 1.5625 35.027344 Z M 1.5625 0 " fill-opacity="1" fill-rule="nonzero"/></g><g clip-path="url(#f00c5172c9)"><path fill="#ffffff" d="M 15.488281 11.269531 L 21.828125 7.609375 C 21.832031 7.609375 21.832031 7.605469 21.835938 7.605469 C 21.585938 7.105469 21.257812 6.652344 20.867188 6.261719 C 19.933594 5.328125 18.640625 4.75 17.210938 4.75 C 14.359375 4.75 12.046875 7.058594 12.042969 9.910156 C 12.042969 9.914062 12.042969 9.914062 12.042969 9.917969 L 12.042969 17.242188 L 15.472656 19.230469 Z M 15.488281 11.269531 " fill-opacity="1" fill-rule="nonzero"/></g><g clip-path="url(#9e5773372f)"><path fill="#ffffff" d="M 8.398438 19.980469 L 14.742188 23.640625 L 18.179688 21.660156 L 11.292969 17.671875 L 11.292969 10.347656 C 11.296875 10.34375 11.292969 10.34375 11.292969 10.339844 C 10.734375 10.304688 10.179688 10.363281 9.644531 10.507812 C 8.367188 10.847656 7.222656 11.679688 6.507812 12.917969 C 5.082031 15.386719 5.925781 18.546875 8.390625 19.976562 C 8.394531 19.976562 8.394531 19.976562 8.398438 19.980469 Z M 8.398438 19.980469 " fill-opacity="1" fill-rule="nonzero"/></g><path fill="#ffffff" d="M 21.640625 20.535156 L 14.738281 24.503906 L 8.398438 20.84375 C 8.398438 20.839844 8.394531 20.839844 8.390625 20.835938 C 8.082031 21.304688 7.855469 21.8125 7.710938 22.347656 C 7.371094 23.625 7.515625 25.03125 8.230469 26.269531 C 9.65625 28.742188 12.8125 29.589844 15.285156 28.167969 C 15.289062 28.164062 15.289062 28.164062 15.292969 28.164062 L 21.632812 24.5 Z M 21.640625 20.535156 " fill-opacity="1" fill-rule="nonzero"/><g clip-path="url(#4e817d9e09)"><path fill="#ffffff" d="M 22.378906 24.933594 L 16.039062 28.59375 C 16.035156 28.59375 16.035156 28.597656 16.03125 28.597656 C 16.28125 29.097656 16.605469 29.550781 17 29.941406 C 17.933594 30.878906 19.226562 31.453125 20.65625 31.453125 C 23.507812 31.453125 25.820312 29.144531 25.824219 26.292969 C 25.824219 26.289062 25.824219 26.289062 25.824219 26.285156 L 25.824219 18.964844 L 22.390625 16.972656 Z M 22.378906 24.933594 " fill-opacity="1" fill-rule="nonzero"/></g><g clip-path="url(#deb588719a)"><path fill="#ffffff" d="M 29.472656 16.230469 C 29.46875 16.226562 29.46875 16.226562 29.464844 16.226562 L 23.125 12.566406 L 19.683594 14.542969 L 26.570312 18.535156 L 26.570312 25.855469 C 26.570312 25.859375 26.574219 25.863281 26.570312 25.863281 C 27.128906 25.898438 27.683594 25.839844 28.21875 25.699219 C 29.496094 25.355469 30.644531 24.523438 31.359375 23.285156 C 32.785156 20.816406 31.941406 17.660156 29.472656 16.230469 Z M 29.472656 16.230469 " fill-opacity="1" fill-rule="nonzero"/></g><path fill="#ffffff" d="M 29.464844 15.363281 C 29.46875 15.367188 29.472656 15.363281 29.476562 15.367188 C 29.78125 14.902344 30.011719 14.394531 30.152344 13.855469 C 30.496094 12.582031 30.351562 11.171875 29.636719 9.933594 C 28.210938 7.464844 25.054688 6.617188 22.582031 8.039062 C 22.578125 8.039062 22.578125 8.039062 22.574219 8.042969 L 16.234375 11.703125 L 16.226562 15.671875 L 23.125 11.703125 Z M 29.464844 15.363281 " fill-opacity="1" fill-rule="nonzero"/><g fill="#ffffff" fill-opacity="1"><g transform="translate(37.479962, 25.175677)"><g><path d="M 8.375 0.515625 C 12.671875 0.515625 16.046875 -2.84375 16.046875 -8.0625 C 16.046875 -13.25 12.671875 -16.453125 8.375 -16.453125 C 4.09375 -16.453125 0.796875 -13.25 0.796875 -8.0625 C 0.796875 -2.828125 4.09375 0.515625 8.375 0.515625 Z M 8.375 -2.375 C 5.734375 -2.375 4.125 -4.65625 4.125 -8.0625 C 4.125 -11.328125 5.734375 -13.5625 8.375 -13.5625 C 11.015625 -13.5625 12.71875 -11.359375 12.71875 -8.0625 C 12.71875 -4.65625 11.015625 -2.375 8.375 -2.375 Z M 8.375 -2.375 "/></g></g></g><g fill="#ffffff" fill-opacity="1"><g transform="translate(54.321635, 25.175677)"><g><path d="M 7.921875 -11.9375 C 6.28125 -11.9375 5.078125 -11.328125 4.296875 -10.140625 L 4.171875 -11.65625 L 1.359375 -11.65625 L 1.359375 4.609375 L 4.53125 4.609375 L 4.53125 -1.078125 C 5.3125 -0.109375 6.390625 0.390625 7.671875 0.390625 C 10.609375 0.390625 12.6875 -2.125 12.6875 -5.875 C 12.6875 -9.6875 10.5625 -11.9375 7.921875 -11.9375 Z M 7 -2.421875 C 5.46875 -2.421875 4.375 -3.765625 4.375 -5.875 C 4.375 -7.96875 5.46875 -9.296875 7 -9.296875 C 8.53125 -9.296875 9.625 -8 9.625 -5.875 C 9.625 -3.71875 8.53125 -2.421875 7 -2.421875 Z M 7 -2.421875 "/></g></g></g><g fill="#ffffff" fill-opacity="1"><g transform="translate(67.731755, 25.175677)"><g><path d="M 12.4375 -5.421875 C 12.4375 -9.5 9.90625 -11.9375 6.453125 -11.9375 C 2.890625 -11.9375 0.71875 -9.28125 0.71875 -5.875 C 0.71875 -2.296875 2.9375 0.390625 6.796875 0.390625 C 9.421875 0.390625 11.359375 -0.828125 12.140625 -3.359375 L 8.984375 -3.59375 C 8.609375 -2.578125 7.828125 -2.078125 6.734375 -2.078125 C 5.140625 -2.078125 4.125 -3.109375 4 -4.875 L 12.4375 -4.875 Z M 6.5625 -9.625 C 8.015625 -9.625 8.96875 -8.671875 9.140625 -7.046875 L 3.96875 -7.046875 C 4.125 -8.640625 5.125 -9.625 6.5625 -9.625 Z M 6.5625 -9.625 "/></g></g></g><g fill="#ffffff" fill-opacity="1"><g transform="translate(80.893547, 25.175677)"><g><path d="M 7.875 -11.9375 C 6.390625 -11.9375 5.28125 -11.328125 4.515625 -10.0625 L 4.46875 -11.65625 L 1.359375 -11.65625 L 1.359375 0 L 4.53125 0 L 4.53125 -6.234375 C 4.53125 -7.96875 5.46875 -9.078125 6.8125 -9.078125 C 7.953125 -9.078125 8.515625 -8.3125 8.515625 -7.09375 L 8.515625 0 L 11.703125 0 L 11.703125 -7.8125 C 11.703125 -10.34375 10.296875 -11.9375 7.875 -11.9375 Z M 7.875 -11.9375 "/></g></g></g><g fill="#ffffff" fill-opacity="1"><g transform="translate(93.942454, 25.175677)"><g><path d="M 15.671875 0 L 10.109375 -16.078125 L 6.25 -16.078125 L 0.5625 0 L 4.109375 0 L 5.1875 -3.34375 L 11.015625 -3.34375 L 12.109375 0 Z M 6.75 -8.078125 L 8.125 -12.71875 L 9.484375 -8.078125 L 10.140625 -6.09375 L 6.09375 -6.09375 Z M 6.75 -8.078125 "/></g></g></g><g fill="#ffffff" fill-opacity="1"><g transform="translate(110.174576, 25.175677)"><g><path d="M 4.5625 -13.1875 L 4.5625 -16.078125 L 1.375 -16.078125 L 1.375 -13.1875 Z M 4.53125 0 L 4.53125 -11.65625 L 1.359375 -11.65625 L 1.359375 0 Z M 4.53125 0 "/></g></g></g></svg>