<svg xmlns="http://www.w3.org/2000/svg" xmlns:xlink="http://www.w3.org/1999/xlink" width="178" zoomAndPan="magnify" viewBox="0 0 133.5 36.000001" height="48" preserveAspectRatio="xMidYMid meet" version="1.0"><defs><g/><clipPath id="ed5d6005b4"><path d="M 5.0625 3.503906 L 29 3.503906 L 29 31.234375 L 5.0625 31.234375 Z M 5.0625 3.503906 " clip-rule="nonzero"/></clipPath></defs><g clip-path="url(#ed5d6005b4)"><path fill="#7bc8b3" d="M 27.625 11.035156 L 23.304688 11.035156 L 23.304688 9.664062 C 23.304688 6.273438 20.503906 3.515625 17.058594 3.515625 C 13.617188 3.515625 10.8125 6.273438 10.8125 9.664062 L 10.8125 11.035156 L 6.429688 11.035156 L 5.0625 31.503906 L 28.984375 31.503906 Z M 12.382812 9.664062 C 12.382812 7.136719 14.480469 5.082031 17.058594 5.082031 C 19.640625 5.082031 21.738281 7.136719 21.738281 9.664062 L 21.738281 11.035156 L 12.382812 11.035156 Z M 11.597656 17.089844 C 11.332031 17.089844 11.078125 17.046875 10.828125 16.957031 C 10.578125 16.867188 10.355469 16.734375 10.152344 16.566406 C 9.949219 16.394531 9.78125 16.195312 9.648438 15.96875 C 9.515625 15.738281 9.425781 15.496094 9.378906 15.234375 C 9.332031 14.976562 9.332031 14.714844 9.375 14.453125 C 9.421875 14.195312 9.507812 13.949219 9.640625 13.71875 C 9.773438 13.488281 9.9375 13.289062 10.140625 13.117188 C 10.339844 12.945312 10.566406 12.816406 10.8125 12.722656 L 10.8125 15.03125 C 10.808594 15.253906 10.882812 15.441406 11.035156 15.597656 C 11.191406 15.757812 11.378906 15.835938 11.597656 15.835938 C 11.816406 15.835938 12.003906 15.757812 12.160156 15.597656 C 12.3125 15.441406 12.386719 15.253906 12.382812 15.03125 L 12.382812 12.722656 C 12.628906 12.816406 12.855469 12.945312 13.054688 13.117188 C 13.257812 13.289062 13.421875 13.488281 13.554688 13.71875 C 13.6875 13.949219 13.773438 14.191406 13.820312 14.453125 C 13.863281 14.714844 13.863281 14.976562 13.816406 15.234375 C 13.769531 15.496094 13.679688 15.738281 13.546875 15.96875 C 13.414062 16.195312 13.246094 16.394531 13.042969 16.566406 C 12.839844 16.734375 12.617188 16.867188 12.367188 16.957031 C 12.117188 17.046875 11.863281 17.089844 11.597656 17.089844 Z M 22.523438 17.089844 C 22.257812 17.089844 22 17.046875 21.753906 16.957031 C 21.503906 16.867188 21.277344 16.734375 21.074219 16.566406 C 20.871094 16.394531 20.707031 16.195312 20.574219 15.96875 C 20.441406 15.738281 20.351562 15.496094 20.304688 15.234375 C 20.257812 14.976562 20.253906 14.714844 20.300781 14.453125 C 20.34375 14.195312 20.433594 13.949219 20.566406 13.71875 C 20.695312 13.488281 20.863281 13.289062 21.0625 13.117188 C 21.265625 12.945312 21.492188 12.816406 21.738281 12.722656 L 21.738281 15.03125 C 21.738281 15.25 21.816406 15.433594 21.96875 15.585938 C 22.121094 15.738281 22.304688 15.816406 22.523438 15.816406 C 22.738281 15.816406 22.921875 15.738281 23.078125 15.585938 C 23.230469 15.433594 23.304688 15.25 23.304688 15.03125 L 23.304688 12.722656 C 23.554688 12.816406 23.777344 12.945312 23.980469 13.117188 C 24.183594 13.289062 24.347656 13.488281 24.480469 13.71875 C 24.609375 13.949219 24.699219 14.195312 24.742188 14.453125 C 24.789062 14.714844 24.789062 14.976562 24.742188 15.234375 C 24.695312 15.496094 24.605469 15.738281 24.472656 15.96875 C 24.339844 16.195312 24.171875 16.394531 23.96875 16.566406 C 23.765625 16.734375 23.539062 16.867188 23.292969 16.957031 C 23.042969 17.046875 22.785156 17.089844 22.523438 17.089844 Z M 22.523438 17.089844 " fill-opacity="1" fill-rule="nonzero"/></g><g fill="#000000" fill-opacity="1"><g transform="translate(35.652331, 27.182003)"><g><path d="M 11.1875 -4.828125 C 11.1875 -5.546875 10.929688 -6.097656 10.421875 -6.484375 C 9.921875 -6.867188 9.015625 -7.273438 7.703125 -7.703125 C 6.390625 -8.128906 5.347656 -8.546875 4.578125 -8.953125 C 2.484375 -10.085938 1.4375 -11.609375 1.4375 -13.515625 C 1.4375 -14.515625 1.71875 -15.40625 2.28125 -16.1875 C 2.84375 -16.96875 3.648438 -17.578125 4.703125 -18.015625 C 5.753906 -18.453125 6.929688 -18.671875 8.234375 -18.671875 C 9.546875 -18.671875 10.71875 -18.429688 11.75 -17.953125 C 12.78125 -17.472656 13.578125 -16.800781 14.140625 -15.9375 C 14.710938 -15.070312 15 -14.085938 15 -12.984375 L 11.203125 -12.984375 C 11.203125 -13.828125 10.9375 -14.476562 10.40625 -14.9375 C 9.875 -15.40625 9.128906 -15.640625 8.171875 -15.640625 C 7.242188 -15.640625 6.519531 -15.441406 6 -15.046875 C 5.488281 -14.660156 5.234375 -14.148438 5.234375 -13.515625 C 5.234375 -12.910156 5.535156 -12.40625 6.140625 -12 C 6.742188 -11.59375 7.628906 -11.210938 8.796875 -10.859375 C 10.960938 -10.210938 12.535156 -9.410156 13.515625 -8.453125 C 14.503906 -7.492188 15 -6.296875 15 -4.859375 C 15 -3.265625 14.394531 -2.015625 13.1875 -1.109375 C 11.988281 -0.203125 10.367188 0.25 8.328125 0.25 C 6.910156 0.25 5.617188 -0.00390625 4.453125 -0.515625 C 3.285156 -1.035156 2.394531 -1.75 1.78125 -2.65625 C 1.175781 -3.5625 0.875 -4.609375 0.875 -5.796875 L 4.6875 -5.796875 C 4.6875 -3.765625 5.898438 -2.75 8.328125 -2.75 C 9.222656 -2.75 9.921875 -2.929688 10.421875 -3.296875 C 10.929688 -3.660156 11.1875 -4.171875 11.1875 -4.828125 Z M 11.1875 -4.828125 "/></g></g><g transform="translate(51.577578, 27.182003)"><g><path d="M 4.96875 -12.1875 C 5.9375 -13.351562 7.15625 -13.9375 8.625 -13.9375 C 11.59375 -13.9375 13.097656 -12.210938 13.140625 -8.765625 L 13.140625 0 L 9.484375 0 L 9.484375 -8.671875 C 9.484375 -9.453125 9.3125 -10.03125 8.96875 -10.40625 C 8.632812 -10.78125 8.078125 -10.96875 7.296875 -10.96875 C 6.222656 -10.96875 5.445312 -10.554688 4.96875 -9.734375 L 4.96875 0 L 1.3125 0 L 1.3125 -19.4375 L 4.96875 -19.4375 Z M 4.96875 -12.1875 "/></g></g><g transform="translate(66.073473, 27.182003)"><g><path d="M 0.828125 -6.96875 C 0.828125 -8.320312 1.085938 -9.53125 1.609375 -10.59375 C 2.140625 -11.65625 2.894531 -12.476562 3.875 -13.0625 C 4.851562 -13.644531 5.992188 -13.9375 7.296875 -13.9375 C 9.140625 -13.9375 10.644531 -13.367188 11.8125 -12.234375 C 12.988281 -11.109375 13.644531 -9.578125 13.78125 -7.640625 L 13.796875 -6.703125 C 13.796875 -4.597656 13.207031 -2.910156 12.03125 -1.640625 C 10.863281 -0.378906 9.289062 0.25 7.3125 0.25 C 5.34375 0.25 3.769531 -0.378906 2.59375 -1.640625 C 1.414062 -2.910156 0.828125 -4.632812 0.828125 -6.8125 Z M 4.484375 -6.703125 C 4.484375 -5.398438 4.726562 -4.40625 5.21875 -3.71875 C 5.707031 -3.03125 6.410156 -2.6875 7.328125 -2.6875 C 8.210938 -2.6875 8.898438 -3.023438 9.390625 -3.703125 C 9.890625 -4.390625 10.140625 -5.476562 10.140625 -6.96875 C 10.140625 -8.238281 9.890625 -9.222656 9.390625 -9.921875 C 8.898438 -10.628906 8.203125 -10.984375 7.296875 -10.984375 C 6.398438 -10.984375 5.707031 -10.632812 5.21875 -9.9375 C 4.726562 -9.238281 4.484375 -8.160156 4.484375 -6.703125 Z M 4.484375 -6.703125 "/></g></g><g transform="translate(80.721159, 27.182003)"><g><path d="M 13.71875 -6.71875 C 13.71875 -4.601562 13.238281 -2.910156 12.28125 -1.640625 C 11.332031 -0.378906 10.039062 0.25 8.40625 0.25 C 7.03125 0.25 5.914062 -0.226562 5.0625 -1.1875 L 5.0625 5.265625 L 1.40625 5.265625 L 1.40625 -13.6875 L 4.796875 -13.6875 L 4.921875 -12.34375 C 5.804688 -13.40625 6.960938 -13.9375 8.390625 -13.9375 C 10.078125 -13.9375 11.382812 -13.3125 12.3125 -12.0625 C 13.25 -10.820312 13.71875 -9.101562 13.71875 -6.90625 Z M 10.0625 -6.984375 C 10.0625 -8.253906 9.835938 -9.234375 9.390625 -9.921875 C 8.941406 -10.617188 8.285156 -10.96875 7.421875 -10.96875 C 6.273438 -10.96875 5.488281 -10.53125 5.0625 -9.65625 L 5.0625 -4.046875 C 5.507812 -3.140625 6.304688 -2.6875 7.453125 -2.6875 C 9.191406 -2.6875 10.0625 -4.117188 10.0625 -6.984375 Z M 10.0625 -6.984375 "/></g></g><g transform="translate(95.305598, 27.182003)"><g><path d="M 5.265625 0 L 1.59375 0 L 1.59375 -13.6875 L 5.265625 -13.6875 Z M 1.375 -17.234375 C 1.375 -17.773438 1.554688 -18.222656 1.921875 -18.578125 C 2.296875 -18.929688 2.796875 -19.109375 3.421875 -19.109375 C 4.046875 -19.109375 4.546875 -18.929688 4.921875 -18.578125 C 5.296875 -18.222656 5.484375 -17.773438 5.484375 -17.234375 C 5.484375 -16.671875 5.289062 -16.210938 4.90625 -15.859375 C 4.53125 -15.503906 4.035156 -15.328125 3.421875 -15.328125 C 2.804688 -15.328125 2.3125 -15.503906 1.9375 -15.859375 C 1.5625 -16.210938 1.375 -16.671875 1.375 -17.234375 Z M 1.375 -17.234375 "/></g></g><g transform="translate(102.174072, 27.182003)"><g><path d="M 2.40625 0 L 2.40625 -11 L 0.359375 -11 L 0.359375 -13.6875 L 2.40625 -13.6875 L 2.40625 -14.84375 C 2.40625 -16.382812 2.84375 -17.578125 3.71875 -18.421875 C 4.601562 -19.273438 5.835938 -19.703125 7.421875 -19.703125 C 7.929688 -19.703125 8.550781 -19.613281 9.28125 -19.4375 L 9.25 -16.609375 C 8.945312 -16.679688 8.578125 -16.71875 8.140625 -16.71875 C 6.765625 -16.71875 6.078125 -16.070312 6.078125 -14.78125 L 6.078125 -13.6875 L 8.796875 -13.6875 L 8.796875 -11 L 6.078125 -11 L 6.078125 0 Z M 2.40625 0 "/></g></g><g transform="translate(111.458529, 27.182003)"><g><path d="M 6.515625 -5.171875 L 9.046875 -13.6875 L 12.96875 -13.6875 L 7.46875 2.125 L 7.15625 2.84375 C 6.34375 4.632812 4.992188 5.53125 3.109375 5.53125 C 2.578125 5.53125 2.039062 5.445312 1.5 5.28125 L 1.5 2.515625 L 2.046875 2.53125 C 2.742188 2.53125 3.257812 2.421875 3.59375 2.203125 C 3.9375 1.992188 4.207031 1.644531 4.40625 1.15625 L 4.828125 0.03125 L 0.03125 -13.6875 L 3.96875 -13.6875 Z M 6.515625 -5.171875 "/></g></g></g></svg>