<svg xmlns="http://www.w3.org/2000/svg" xmlns:xlink="http://www.w3.org/1999/xlink" width="178" zoomAndPan="magnify" viewBox="0 0 133.5 36.000001" height="48" preserveAspectRatio="xMidYMid meet" version="1.0"><defs><g/><clipPath id="452527af06"><path d="M 9 1.75 L 22 1.75 L 22 19 L 9 19 Z M 9 1.75 " clip-rule="nonzero"/></clipPath><clipPath id="6b4a50761c"><path d="M 14 16 L 26 16 L 26 33.128906 L 14 33.128906 Z M 14 16 " clip-rule="nonzero"/></clipPath></defs><g clip-path="url(#452527af06)"><path fill="#ffffff" d="M 13.804688 9.484375 L 21.25 5.183594 C 21.257812 5.183594 21.257812 5.179688 21.261719 5.179688 C 20.96875 4.59375 20.582031 4.0625 20.121094 3.601562 C 19.023438 2.503906 17.507812 1.824219 15.828125 1.824219 C 12.476562 1.824219 9.761719 4.539062 9.757812 7.886719 C 9.757812 7.890625 9.757812 7.890625 9.757812 7.898438 L 9.757812 16.496094 L 13.789062 18.835938 Z M 13.804688 9.484375 " fill-opacity="1" fill-rule="nonzero"/></g><path fill="#ffffff" d="M 5.480469 19.710938 L 12.925781 24.011719 L 16.96875 21.691406 L 8.878906 17.003906 L 8.878906 8.402344 C 8.878906 8.398438 8.875 8.394531 8.878906 8.390625 C 8.222656 8.351562 7.570312 8.417969 6.941406 8.589844 C 5.441406 8.988281 4.097656 9.964844 3.257812 11.421875 C 1.582031 14.320312 2.574219 18.03125 5.46875 19.707031 C 5.476562 19.710938 5.476562 19.710938 5.480469 19.710938 Z M 5.480469 19.710938 " fill-opacity="1" fill-rule="nonzero"/><path fill="#ffffff" d="M 21.03125 20.363281 L 12.925781 25.027344 L 5.480469 20.726562 C 5.476562 20.722656 5.472656 20.722656 5.46875 20.71875 C 5.105469 21.269531 4.839844 21.867188 4.671875 22.496094 C 4.269531 23.996094 4.441406 25.648438 5.28125 27.105469 C 6.957031 30.003906 10.664062 31 13.566406 29.332031 C 13.570312 29.328125 13.570312 29.328125 13.574219 29.324219 L 21.023438 25.023438 Z M 21.03125 20.363281 " fill-opacity="1" fill-rule="nonzero"/><g clip-path="url(#6b4a50761c)"><path fill="#ffffff" d="M 21.898438 25.53125 L 14.453125 29.832031 C 14.445312 29.832031 14.445312 29.839844 14.441406 29.839844 C 14.734375 30.425781 15.121094 30.957031 15.578125 31.417969 C 16.675781 32.515625 18.195312 33.191406 19.875 33.191406 C 23.222656 33.191406 25.941406 30.480469 25.945312 27.132812 C 25.945312 27.125 25.945312 27.125 25.945312 27.121094 L 25.945312 18.519531 L 21.914062 16.183594 Z M 21.898438 25.53125 " fill-opacity="1" fill-rule="nonzero"/></g><path fill="#ffffff" d="M 30.230469 15.308594 C 30.226562 15.308594 30.226562 15.308594 30.222656 15.304688 L 22.773438 11.003906 L 18.734375 13.328125 L 26.824219 18.015625 L 26.824219 26.617188 C 26.820312 26.621094 26.824219 26.621094 26.824219 26.625 C 27.480469 26.664062 28.128906 26.597656 28.757812 26.429688 C 30.257812 26.027344 31.605469 25.050781 32.445312 23.597656 C 34.121094 20.699219 33.128906 16.988281 30.230469 15.308594 Z M 30.230469 15.308594 " fill-opacity="1" fill-rule="nonzero"/><path fill="#ffffff" d="M 30.222656 14.292969 C 30.226562 14.296875 30.230469 14.292969 30.234375 14.296875 C 30.59375 13.75 30.863281 13.152344 31.03125 12.523438 C 31.433594 11.023438 31.261719 9.371094 30.421875 7.914062 C 28.746094 5.015625 25.039062 4.015625 22.136719 5.6875 C 22.132812 5.691406 22.132812 5.691406 22.128906 5.691406 L 14.679688 9.992188 L 14.671875 14.652344 L 22.777344 9.992188 Z M 30.222656 14.292969 " fill-opacity="1" fill-rule="nonzero"/><g fill="#ffffff" fill-opacity="1"><g transform="translate(41.973012, 25.905407)"><g><path d="M 16.765625 -8.796875 C 16.765625 -6.984375 16.441406 -5.390625 15.796875 -4.015625 C 15.160156 -2.648438 14.242188 -1.597656 13.046875 -0.859375 C 11.859375 -0.117188 10.492188 0.25 8.953125 0.25 C 7.429688 0.25 6.070312 -0.113281 4.875 -0.84375 C 3.675781 -1.582031 2.742188 -2.628906 2.078125 -3.984375 C 1.421875 -5.347656 1.09375 -6.914062 1.09375 -8.6875 L 1.09375 -9.59375 C 1.09375 -11.414062 1.414062 -13.015625 2.0625 -14.390625 C 2.71875 -15.765625 3.640625 -16.820312 4.828125 -17.5625 C 6.023438 -18.300781 7.390625 -18.671875 8.921875 -18.671875 C 10.460938 -18.671875 11.828125 -18.300781 13.015625 -17.5625 C 14.210938 -16.820312 15.132812 -15.765625 15.78125 -14.390625 C 16.4375 -13.015625 16.765625 -11.421875 16.765625 -9.609375 Z M 12.921875 -9.625 C 12.921875 -11.550781 12.578125 -13.015625 11.890625 -14.015625 C 11.203125 -15.023438 10.21875 -15.53125 8.9375 -15.53125 C 7.65625 -15.53125 6.671875 -15.035156 5.984375 -14.046875 C 5.296875 -13.054688 4.945312 -11.601562 4.9375 -9.6875 L 4.9375 -8.796875 C 4.9375 -6.910156 5.28125 -5.445312 5.96875 -4.40625 C 6.664062 -3.375 7.660156 -2.859375 8.953125 -2.859375 C 10.222656 -2.859375 11.203125 -3.359375 11.890625 -4.359375 C 12.578125 -5.359375 12.921875 -6.816406 12.921875 -8.734375 Z M 12.921875 -9.625 "/></g></g><g transform="translate(59.858873, 25.905407)"><g><path d="M 13.71875 -6.71875 C 13.71875 -4.601562 13.238281 -2.910156 12.28125 -1.640625 C 11.332031 -0.378906 10.039062 0.25 8.40625 0.25 C 7.03125 0.25 5.914062 -0.226562 5.0625 -1.1875 L 5.0625 5.265625 L 1.40625 5.265625 L 1.40625 -13.6875 L 4.796875 -13.6875 L 4.921875 -12.34375 C 5.804688 -13.40625 6.960938 -13.9375 8.390625 -13.9375 C 10.078125 -13.9375 11.382812 -13.3125 12.3125 -12.0625 C 13.25 -10.820312 13.71875 -9.101562 13.71875 -6.90625 Z M 10.0625 -6.984375 C 10.0625 -8.253906 9.835938 -9.234375 9.390625 -9.921875 C 8.941406 -10.617188 8.285156 -10.96875 7.421875 -10.96875 C 6.273438 -10.96875 5.488281 -10.53125 5.0625 -9.65625 L 5.0625 -4.046875 C 5.507812 -3.140625 6.304688 -2.6875 7.453125 -2.6875 C 9.191406 -2.6875 10.0625 -4.117188 10.0625 -6.984375 Z M 10.0625 -6.984375 "/></g></g><g transform="translate(74.443312, 25.905407)"><g><path d="M 7.703125 0.25 C 5.691406 0.25 4.054688 -0.363281 2.796875 -1.59375 C 1.535156 -2.820312 0.90625 -4.460938 0.90625 -6.515625 L 0.90625 -6.875 C 0.90625 -8.25 1.171875 -9.476562 1.703125 -10.5625 C 2.234375 -11.644531 2.984375 -12.476562 3.953125 -13.0625 C 4.929688 -13.644531 6.046875 -13.9375 7.296875 -13.9375 C 9.171875 -13.9375 10.644531 -13.34375 11.71875 -12.15625 C 12.789062 -10.976562 13.328125 -9.304688 13.328125 -7.140625 L 13.328125 -5.65625 L 4.609375 -5.65625 C 4.734375 -4.757812 5.09375 -4.039062 5.6875 -3.5 C 6.28125 -2.957031 7.03125 -2.6875 7.9375 -2.6875 C 9.351562 -2.6875 10.457031 -3.195312 11.25 -4.21875 L 13.046875 -2.21875 C 12.492188 -1.4375 11.75 -0.828125 10.8125 -0.390625 C 9.875 0.0351562 8.835938 0.25 7.703125 0.25 Z M 7.28125 -10.984375 C 6.5625 -10.984375 5.972656 -10.738281 5.515625 -10.25 C 5.066406 -9.757812 4.78125 -9.054688 4.65625 -8.140625 L 9.734375 -8.140625 L 9.734375 -8.4375 C 9.722656 -9.25 9.503906 -9.875 9.078125 -10.3125 C 8.660156 -10.757812 8.0625 -10.984375 7.28125 -10.984375 Z M 7.28125 -10.984375 "/></g></g><g transform="translate(88.445892, 25.905407)"><g><path d="M 4.765625 -13.6875 L 4.875 -12.109375 C 5.851562 -13.328125 7.164062 -13.9375 8.8125 -13.9375 C 10.269531 -13.9375 11.351562 -13.507812 12.0625 -12.65625 C 12.769531 -11.8125 13.128906 -10.539062 13.140625 -8.84375 L 13.140625 0 L 9.484375 0 L 9.484375 -8.75 C 9.484375 -9.53125 9.3125 -10.09375 8.96875 -10.4375 C 8.632812 -10.789062 8.078125 -10.96875 7.296875 -10.96875 C 6.265625 -10.96875 5.492188 -10.53125 4.984375 -9.65625 L 4.984375 0 L 1.328125 0 L 1.328125 -13.6875 Z M 4.765625 -13.6875 "/></g></g><g transform="translate(102.954437, 25.905407)"><g><path d="M 12.046875 -3.796875 L 5.390625 -3.796875 L 4.125 0 L 0.09375 0 L 6.9375 -18.421875 L 10.46875 -18.421875 L 17.359375 0 L 13.3125 0 Z M 6.40625 -6.875 L 11.015625 -6.875 L 8.703125 -13.765625 Z M 6.40625 -6.875 "/></g></g><g transform="translate(120.384929, 25.905407)"><g><path d="M 5.671875 0 L 1.890625 0 L 1.890625 -18.421875 L 5.671875 -18.421875 Z M 5.671875 0 "/></g></g></g></svg>