<svg xmlns="http://www.w3.org/2000/svg" xmlns:xlink="http://www.w3.org/1999/xlink" width="178" zoomAndPan="magnify" viewBox="0 0 133.5 36.000001" height="48" preserveAspectRatio="xMidYMid meet" version="1.0"><defs><g/><clipPath id="a16ccccfce"><path d="M 7.375 5.1875 L 41.671875 5.1875 L 41.671875 27.808594 L 7.375 27.808594 Z M 7.375 5.1875 " clip-rule="nonzero"/></clipPath></defs><g clip-path="url(#a16ccccfce)"><path fill="#7bc8b3" d="M 24.832031 9.929688 C 22.121094 6.496094 19.855469 5.1875 17.144531 5.1875 C 11.617188 5.1875 7.382812 12.347656 7.382812 19.925781 C 7.382812 24.667969 9.6875 27.660156 13.546875 27.660156 C 16.328125 27.660156 18.324219 26.355469 21.878906 20.175781 C 21.878906 20.175781 23.359375 17.570312 24.378906 15.777344 C 24.734375 16.351562 25.109375 16.96875 25.503906 17.632812 L 27.171875 20.421875 C 30.417969 25.828125 32.226562 27.660156 35.5 27.660156 C 39.261719 27.660156 41.355469 24.628906 41.355469 19.785156 C 41.355469 11.851562 37.023438 5.1875 31.765625 5.1875 C 28.980469 5.1875 26.800781 7.273438 24.832031 9.929688 Z M 30.039062 17.933594 L 28.046875 14.628906 C 27.507812 13.753906 26.992188 12.953125 26.492188 12.21875 C 28.289062 9.460938 29.769531 8.085938 31.53125 8.085938 C 35.191406 8.085938 38.117188 13.449219 38.117188 20.035156 C 38.117188 22.546875 37.289062 24.003906 35.578125 24.003906 C 33.9375 24.003906 33.15625 22.921875 30.039062 17.933594 Z M 11.058594 19.988281 C 11.058594 14.484375 13.8125 8.859375 17.097656 8.859375 C 18.878906 8.859375 20.363281 9.882812 22.640625 13.128906 C 20.480469 16.429688 19.167969 18.5 19.167969 18.5 C 16.289062 22.996094 15.292969 24.003906 13.6875 24.003906 C 12.039062 24.003906 11.058594 22.558594 11.058594 19.988281 Z M 11.058594 19.988281 " fill-opacity="1" fill-rule="nonzero"/></g><g fill="#000000" fill-opacity="1"><g transform="translate(46.839371, 24.457674)"><g><path d="M 6.109375 -17.03125 L 10.484375 -4.671875 L 14.828125 -17.03125 L 19.4375 -17.03125 L 19.4375 0 L 15.921875 0 L 15.921875 -4.65625 L 16.265625 -12.6875 L 11.671875 0 L 9.265625 0 L 4.671875 -12.671875 L 5.03125 -4.65625 L 5.03125 0 L 1.515625 0 L 1.515625 -17.03125 Z M 6.109375 -17.03125 "/></g></g></g><g fill="#000000" fill-opacity="1"><g transform="translate(67.823966, 24.457674)"><g><path d="M 7.125 0.234375 C 5.269531 0.234375 3.757812 -0.332031 2.59375 -1.46875 C 1.425781 -2.613281 0.84375 -4.128906 0.84375 -6.015625 L 0.84375 -6.34375 C 0.84375 -7.613281 1.085938 -8.75 1.578125 -9.75 C 2.066406 -10.757812 2.757812 -11.535156 3.65625 -12.078125 C 4.5625 -12.617188 5.59375 -12.890625 6.75 -12.890625 C 8.476562 -12.890625 9.835938 -12.34375 10.828125 -11.25 C 11.828125 -10.15625 12.328125 -8.609375 12.328125 -6.609375 L 12.328125 -5.234375 L 4.265625 -5.234375 C 4.378906 -4.398438 4.707031 -3.734375 5.25 -3.234375 C 5.800781 -2.734375 6.5 -2.484375 7.34375 -2.484375 C 8.644531 -2.484375 9.660156 -2.957031 10.390625 -3.90625 L 12.0625 -2.046875 C 11.550781 -1.328125 10.863281 -0.765625 10 -0.359375 C 9.132812 0.0351562 8.175781 0.234375 7.125 0.234375 Z M 6.734375 -10.15625 C 6.066406 -10.15625 5.523438 -9.925781 5.109375 -9.46875 C 4.691406 -9.019531 4.421875 -8.375 4.296875 -7.53125 L 9 -7.53125 L 9 -7.796875 C 8.988281 -8.546875 8.785156 -9.125 8.390625 -9.53125 C 8.003906 -9.945312 7.453125 -10.15625 6.734375 -10.15625 Z M 6.734375 -10.15625 "/></g></g></g><g fill="#000000" fill-opacity="1"><g transform="translate(80.77266, 24.457674)"><g><path d="M 5.34375 -15.765625 L 5.34375 -12.65625 L 7.515625 -12.65625 L 7.515625 -10.171875 L 5.34375 -10.171875 L 5.34375 -3.859375 C 5.34375 -3.390625 5.429688 -3.050781 5.609375 -2.84375 C 5.796875 -2.644531 6.140625 -2.546875 6.640625 -2.546875 C 7.015625 -2.546875 7.347656 -2.570312 7.640625 -2.625 L 7.640625 -0.0625 C 6.972656 0.132812 6.289062 0.234375 5.59375 0.234375 C 3.21875 0.234375 2.007812 -0.960938 1.96875 -3.359375 L 1.96875 -10.171875 L 0.109375 -10.171875 L 0.109375 -12.65625 L 1.96875 -12.65625 L 1.96875 -15.765625 Z M 5.34375 -15.765625 "/></g></g></g><g fill="#000000" fill-opacity="1"><g transform="translate(88.867052, 24.457674)"><g><path d="M 8.625 0 C 8.46875 -0.300781 8.359375 -0.679688 8.296875 -1.140625 C 7.472656 -0.222656 6.40625 0.234375 5.09375 0.234375 C 3.851562 0.234375 2.828125 -0.125 2.015625 -0.84375 C 1.203125 -1.5625 0.796875 -2.46875 0.796875 -3.5625 C 0.796875 -4.894531 1.289062 -5.921875 2.28125 -6.640625 C 3.28125 -7.359375 4.71875 -7.722656 6.59375 -7.734375 L 8.15625 -7.734375 L 8.15625 -8.453125 C 8.15625 -9.035156 8.003906 -9.503906 7.703125 -9.859375 C 7.398438 -10.210938 6.925781 -10.390625 6.28125 -10.390625 C 5.707031 -10.390625 5.257812 -10.25 4.9375 -9.96875 C 4.613281 -9.695312 4.453125 -9.328125 4.453125 -8.859375 L 1.078125 -8.859375 C 1.078125 -9.585938 1.300781 -10.265625 1.75 -10.890625 C 2.207031 -11.515625 2.847656 -12.003906 3.671875 -12.359375 C 4.492188 -12.710938 5.421875 -12.890625 6.453125 -12.890625 C 8.015625 -12.890625 9.253906 -12.492188 10.171875 -11.703125 C 11.085938 -10.921875 11.546875 -9.820312 11.546875 -8.40625 L 11.546875 -2.921875 C 11.554688 -1.722656 11.722656 -0.816406 12.046875 -0.203125 L 12.046875 0 Z M 5.84375 -2.34375 C 6.332031 -2.34375 6.785156 -2.453125 7.203125 -2.671875 C 7.628906 -2.898438 7.945312 -3.203125 8.15625 -3.578125 L 8.15625 -5.75 L 6.890625 -5.75 C 5.191406 -5.75 4.289062 -5.164062 4.1875 -4 L 4.171875 -3.796875 C 4.171875 -3.378906 4.316406 -3.03125 4.609375 -2.75 C 4.910156 -2.476562 5.320312 -2.34375 5.84375 -2.34375 Z M 5.84375 -2.34375 "/></g></g></g><g fill="#000000" fill-opacity="1"><g transform="translate(101.710467, 24.457674)"><g/></g></g><g fill="#000000" fill-opacity="1"><g transform="translate(107.675987, 24.457674)"><g><path d="M 8.109375 -9.53125 L 12.34375 -9.53125 L 12.34375 -6.484375 L 8.109375 -6.484375 L 8.109375 -1.703125 L 4.90625 -1.703125 L 4.90625 -6.484375 L 0.671875 -6.484375 L 0.671875 -9.53125 L 4.90625 -9.53125 L 4.90625 -14.109375 L 8.109375 -14.109375 Z M 8.109375 -9.53125 "/></g></g></g></svg>