<svg xmlns="http://www.w3.org/2000/svg" xmlns:xlink="http://www.w3.org/1999/xlink" width="178" zoomAndPan="magnify" viewBox="0 0 133.5 36.000001" height="48" preserveAspectRatio="xMidYMid meet" version="1.0"><defs><g/><clipPath id="8f8339aa9e"><path d="M 5.0625 3.503906 L 32.792969 3.503906 L 32.792969 31.234375 L 5.0625 31.234375 Z M 5.0625 3.503906 " clip-rule="nonzero"/></clipPath></defs><g clip-path="url(#8f8339aa9e)"><path fill="#ffffff" d="M 19.070312 3.503906 C 11.335938 3.503906 5.0625 9.773438 5.0625 17.511719 C 5.0625 25.246094 11.335938 31.515625 19.070312 31.515625 C 26.808594 31.515625 33.078125 25.246094 33.078125 17.511719 C 33.078125 9.773438 26.808594 3.503906 19.070312 3.503906 Z M 25.71875 24.417969 L 21.710938 24.417969 L 19.082031 14.972656 L 16.460938 24.417969 L 12.453125 24.417969 L 9.378906 10.605469 L 13.15625 10.605469 L 14.625 18.394531 L 14.988281 18.410156 L 17.144531 10.605469 L 21.007812 10.605469 L 23.171875 18.398438 L 23.535156 18.382812 L 25.007812 10.605469 L 28.761719 10.605469 Z M 25.71875 24.417969 " fill-opacity="1" fill-rule="nonzero"/></g><g fill="#ffffff" fill-opacity="1"><g transform="translate(37.067832, 24.457674)"><g><path d="M 14.78125 -4.90625 L 17.078125 -17.03125 L 20.578125 -17.03125 L 16.796875 0 L 13.265625 0 L 10.484375 -11.390625 L 7.71875 0 L 4.1875 0 L 0.40625 -17.03125 L 3.90625 -17.03125 L 6.203125 -4.9375 L 9.015625 -17.03125 L 11.984375 -17.03125 Z M 14.78125 -4.90625 "/></g></g></g><g fill="#ffffff" fill-opacity="1"><g transform="translate(58.017342, 24.457674)"><g><path d="M 7.125 0.234375 C 5.269531 0.234375 3.757812 -0.332031 2.59375 -1.46875 C 1.425781 -2.613281 0.84375 -4.128906 0.84375 -6.015625 L 0.84375 -6.34375 C 0.84375 -7.613281 1.085938 -8.75 1.578125 -9.75 C 2.066406 -10.757812 2.757812 -11.535156 3.65625 -12.078125 C 4.5625 -12.617188 5.59375 -12.890625 6.75 -12.890625 C 8.476562 -12.890625 9.835938 -12.34375 10.828125 -11.25 C 11.828125 -10.15625 12.328125 -8.609375 12.328125 -6.609375 L 12.328125 -5.234375 L 4.265625 -5.234375 C 4.378906 -4.398438 4.707031 -3.734375 5.25 -3.234375 C 5.800781 -2.734375 6.5 -2.484375 7.34375 -2.484375 C 8.644531 -2.484375 9.660156 -2.957031 10.390625 -3.90625 L 12.0625 -2.046875 C 11.550781 -1.328125 10.863281 -0.765625 10 -0.359375 C 9.132812 0.0351562 8.175781 0.234375 7.125 0.234375 Z M 6.734375 -10.15625 C 6.066406 -10.15625 5.523438 -9.925781 5.109375 -9.46875 C 4.691406 -9.019531 4.421875 -8.375 4.296875 -7.53125 L 9 -7.53125 L 9 -7.796875 C 8.988281 -8.546875 8.785156 -9.125 8.390625 -9.53125 C 8.003906 -9.945312 7.453125 -10.15625 6.734375 -10.15625 Z M 6.734375 -10.15625 "/></g></g></g><g fill="#ffffff" fill-opacity="1"><g transform="translate(70.966036, 24.457674)"><g><path d="M 12.703125 -6.203125 C 12.703125 -4.179688 12.269531 -2.601562 11.40625 -1.46875 C 10.539062 -0.332031 9.332031 0.234375 7.78125 0.234375 C 6.40625 0.234375 5.304688 -0.289062 4.484375 -1.34375 L 4.34375 0 L 1.296875 0 L 1.296875 -17.96875 L 4.671875 -17.96875 L 4.671875 -11.515625 C 5.453125 -12.429688 6.476562 -12.890625 7.75 -12.890625 C 9.289062 -12.890625 10.5 -12.320312 11.375 -11.1875 C 12.257812 -10.050781 12.703125 -8.453125 12.703125 -6.390625 Z M 9.328125 -6.453125 C 9.328125 -7.734375 9.125 -8.664062 8.71875 -9.25 C 8.3125 -9.84375 7.707031 -10.140625 6.90625 -10.140625 C 5.820312 -10.140625 5.078125 -9.695312 4.671875 -8.8125 L 4.671875 -3.828125 C 5.085938 -2.929688 5.835938 -2.484375 6.921875 -2.484375 C 8.015625 -2.484375 8.734375 -3.023438 9.078125 -4.109375 C 9.242188 -4.617188 9.328125 -5.398438 9.328125 -6.453125 Z M 9.328125 -6.453125 "/></g></g></g><g fill="#ffffff" fill-opacity="1"><g transform="translate(84.452797, 24.457674)"><g><path d="M 2.21875 0 L 2.21875 -10.171875 L 0.34375 -10.171875 L 0.34375 -12.65625 L 2.21875 -12.65625 L 2.21875 -13.734375 C 2.21875 -15.148438 2.625 -16.25 3.4375 -17.03125 C 4.257812 -17.8125 5.398438 -18.203125 6.859375 -18.203125 C 7.328125 -18.203125 7.898438 -18.125 8.578125 -17.96875 L 8.546875 -15.359375 C 8.265625 -15.429688 7.921875 -15.46875 7.515625 -15.46875 C 6.242188 -15.46875 5.609375 -14.867188 5.609375 -13.671875 L 5.609375 -12.65625 L 8.125 -12.65625 L 8.125 -10.171875 L 5.609375 -10.171875 L 5.609375 0 Z M 2.21875 0 "/></g></g></g><g fill="#ffffff" fill-opacity="1"><g transform="translate(93.038467, 24.457674)"><g><path d="M 4.859375 0 L 1.46875 0 L 1.46875 -17.96875 L 4.859375 -17.96875 Z M 4.859375 0 "/></g></g></g><g fill="#ffffff" fill-opacity="1"><g transform="translate(99.389998, 24.457674)"><g><path d="M 0.765625 -6.4375 C 0.765625 -7.695312 1.003906 -8.816406 1.484375 -9.796875 C 1.972656 -10.785156 2.671875 -11.546875 3.578125 -12.078125 C 4.492188 -12.617188 5.550781 -12.890625 6.75 -12.890625 C 8.457031 -12.890625 9.847656 -12.363281 10.921875 -11.3125 C 12.003906 -10.269531 12.609375 -8.851562 12.734375 -7.0625 L 12.765625 -6.203125 C 12.765625 -4.253906 12.222656 -2.691406 11.140625 -1.515625 C 10.054688 -0.347656 8.597656 0.234375 6.765625 0.234375 C 4.941406 0.234375 3.484375 -0.347656 2.390625 -1.515625 C 1.304688 -2.691406 0.765625 -4.285156 0.765625 -6.296875 Z M 4.15625 -6.203125 C 4.15625 -4.992188 4.378906 -4.070312 4.828125 -3.4375 C 5.285156 -2.800781 5.929688 -2.484375 6.765625 -2.484375 C 7.585938 -2.484375 8.226562 -2.796875 8.6875 -3.421875 C 9.144531 -4.054688 9.375 -5.0625 9.375 -6.4375 C 9.375 -7.613281 9.144531 -8.523438 8.6875 -9.171875 C 8.226562 -9.828125 7.582031 -10.15625 6.75 -10.15625 C 5.925781 -10.15625 5.285156 -9.832031 4.828125 -9.1875 C 4.378906 -8.539062 4.15625 -7.546875 4.15625 -6.203125 Z M 4.15625 -6.203125 "/></g></g></g><g fill="#ffffff" fill-opacity="1"><g transform="translate(112.935238, 24.457674)"><g><path d="M 12.296875 -4.59375 L 13.96875 -12.65625 L 17.234375 -12.65625 L 14 0 L 11.171875 0 L 8.765625 -7.96875 L 6.375 0 L 3.5625 0 L 0.328125 -12.65625 L 3.59375 -12.65625 L 5.234375 -4.609375 L 7.5625 -12.65625 L 10 -12.65625 Z M 12.296875 -4.59375 "/></g></g></g></svg>