<svg xmlns="http://www.w3.org/2000/svg" xmlns:xlink="http://www.w3.org/1999/xlink" width="178" zoomAndPan="magnify" viewBox="0 0 133.5 36.000001" height="48" preserveAspectRatio="xMidYMid meet" version="1.0"><defs><g/><clipPath id="b7987dfb83"><path d="M 5.0625 3.503906 L 32.792969 3.503906 L 32.792969 31.234375 L 5.0625 31.234375 Z M 5.0625 3.503906 " clip-rule="nonzero"/></clipPath><clipPath id="af9b2432ba"><path d="M 18 14 L 32.792969 14 L 32.792969 31.234375 L 18 31.234375 Z M 18 14 " clip-rule="nonzero"/></clipPath></defs><g clip-path="url(#b7987dfb83)"><path fill="#ffffff" d="M 16.285156 25.988281 L 16.285156 30.457031 C 16.285156 30.867188 15.898438 31.160156 15.503906 31.058594 C 9.503906 29.476562 5.0625 24 5.0625 17.511719 C 5.0625 9.785156 11.347656 3.503906 19.070312 3.503906 C 24.726562 3.503906 29.796875 6.875 31.988281 12.089844 C 32.160156 12.5 31.859375 12.949219 31.417969 12.949219 L 26.011719 12.949219 C 25.824219 12.949219 25.648438 12.867188 25.53125 12.71875 C 23.972656 10.75 21.597656 9.589844 19.070312 9.589844 C 14.355469 9.589844 10.554688 13.574219 10.859375 18.355469 C 11.058594 21.523438 13.082031 24.234375 15.902344 25.414062 C 16.132812 25.511719 16.285156 25.738281 16.285156 25.988281 " fill-opacity="1" fill-rule="evenodd"/></g><g clip-path="url(#af9b2432ba)"><path fill="#ffffff" d="M 33.078125 17.511719 C 33.078125 18.265625 33.015625 19.023438 32.894531 19.765625 C 32.371094 23.011719 30.703125 25.984375 28.191406 28.140625 C 25.65625 30.316406 22.417969 31.515625 19.070312 31.515625 C 19.011719 31.515625 18.953125 31.515625 18.894531 31.515625 C 18.554688 31.511719 18.28125 31.234375 18.28125 30.894531 L 18.28125 26.664062 C 18.28125 26.316406 18.566406 26.039062 18.914062 26.046875 C 22.109375 26.105469 24.96875 24.324219 26.378906 21.613281 C 26.589844 21.199219 26.289062 20.707031 25.824219 20.707031 L 18.898438 20.707031 C 18.558594 20.707031 18.28125 20.429688 18.28125 20.085938 L 18.28125 15.550781 C 18.28125 15.207031 18.558594 14.929688 18.898438 14.929688 L 32.320312 14.929688 C 32.636719 14.929688 32.902344 15.167969 32.9375 15.480469 L 32.988281 15.929688 C 33.046875 16.449219 33.078125 16.984375 33.078125 17.511719 " fill-opacity="1" fill-rule="evenodd"/></g><g fill="#ffffff" fill-opacity="1"><g transform="translate(37.23319, 25.617302)"><g><path d="M 10.5 -3.3125 L 4.703125 -3.3125 L 3.59375 0 L 0.078125 0 L 6.046875 -16.046875 L 9.125 -16.046875 L 15.125 0 L 11.609375 0 Z M 5.59375 -5.984375 L 9.609375 -5.984375 L 7.578125 -12 Z M 5.59375 -5.984375 "/></g></g></g><g fill="#ffffff" fill-opacity="1"><g transform="translate(52.423496, 25.617302)"><g><path d="M 0.734375 -6.046875 C 0.734375 -7.910156 1.148438 -9.394531 1.984375 -10.5 C 2.816406 -11.601562 3.957031 -12.15625 5.40625 -12.15625 C 6.5625 -12.15625 7.519531 -11.71875 8.28125 -10.84375 L 8.28125 -16.9375 L 11.46875 -16.9375 L 11.46875 0 L 8.59375 0 L 8.4375 -1.265625 C 7.644531 -0.273438 6.625 0.21875 5.375 0.21875 C 3.976562 0.21875 2.851562 -0.332031 2 -1.4375 C 1.15625 -2.539062 0.734375 -4.078125 0.734375 -6.046875 Z M 3.90625 -5.828125 C 3.90625 -4.703125 4.097656 -3.84375 4.484375 -3.25 C 4.878906 -2.65625 5.453125 -2.359375 6.203125 -2.359375 C 7.179688 -2.359375 7.875 -2.773438 8.28125 -3.609375 L 8.28125 -8.3125 C 7.882812 -9.144531 7.195312 -9.5625 6.21875 -9.5625 C 4.675781 -9.5625 3.90625 -8.316406 3.90625 -5.828125 Z M 3.90625 -5.828125 "/></g></g></g><g fill="#ffffff" fill-opacity="1"><g transform="translate(65.14455, 25.617302)"><g><path d="M 13.9375 -4.625 L 16.09375 -16.046875 L 19.390625 -16.046875 L 15.828125 0 L 12.5 0 L 9.890625 -10.734375 L 7.28125 0 L 3.953125 0 L 0.390625 -16.046875 L 3.6875 -16.046875 L 5.859375 -4.65625 L 8.5 -16.046875 L 11.296875 -16.046875 Z M 13.9375 -4.625 "/></g></g></g><g fill="#ffffff" fill-opacity="1"><g transform="translate(84.887538, 25.617302)"><g><path d="M 0.734375 -6.078125 C 0.734375 -7.253906 0.957031 -8.304688 1.40625 -9.234375 C 1.863281 -10.160156 2.519531 -10.878906 3.375 -11.390625 C 4.226562 -11.898438 5.222656 -12.15625 6.359375 -12.15625 C 7.972656 -12.15625 9.285156 -11.660156 10.296875 -10.671875 C 11.316406 -9.679688 11.882812 -8.34375 12 -6.65625 L 12.03125 -5.84375 C 12.03125 -4.007812 11.519531 -2.539062 10.5 -1.4375 C 9.476562 -0.332031 8.101562 0.21875 6.375 0.21875 C 4.65625 0.21875 3.285156 -0.332031 2.265625 -1.4375 C 1.242188 -2.539062 0.734375 -4.039062 0.734375 -5.9375 Z M 3.90625 -5.84375 C 3.90625 -4.707031 4.117188 -3.835938 4.546875 -3.234375 C 4.972656 -2.640625 5.585938 -2.34375 6.390625 -2.34375 C 7.160156 -2.34375 7.757812 -2.640625 8.1875 -3.234375 C 8.625 -3.828125 8.84375 -4.773438 8.84375 -6.078125 C 8.84375 -7.179688 8.625 -8.035156 8.1875 -8.640625 C 7.757812 -9.253906 7.148438 -9.5625 6.359375 -9.5625 C 5.578125 -9.5625 4.972656 -9.257812 4.546875 -8.65625 C 4.117188 -8.050781 3.90625 -7.113281 3.90625 -5.84375 Z M 3.90625 -5.84375 "/></g></g></g><g fill="#ffffff" fill-opacity="1"><g transform="translate(97.652686, 25.617302)"><g><path d="M 7.921875 -8.9375 C 7.492188 -9 7.113281 -9.03125 6.78125 -9.03125 C 5.570312 -9.03125 4.78125 -8.625 4.40625 -7.8125 L 4.40625 0 L 1.21875 0 L 1.21875 -11.921875 L 4.234375 -11.921875 L 4.328125 -10.5 C 4.960938 -11.601562 5.847656 -12.15625 6.984375 -12.15625 C 7.328125 -12.15625 7.65625 -12.101562 7.96875 -12 Z M 7.921875 -8.9375 "/></g></g></g><g fill="#ffffff" fill-opacity="1"><g transform="translate(105.887199, 25.617302)"><g><path d="M 0.734375 -6.046875 C 0.734375 -7.910156 1.148438 -9.394531 1.984375 -10.5 C 2.816406 -11.601562 3.957031 -12.15625 5.40625 -12.15625 C 6.5625 -12.15625 7.519531 -11.71875 8.28125 -10.84375 L 8.28125 -16.9375 L 11.46875 -16.9375 L 11.46875 0 L 8.59375 0 L 8.4375 -1.265625 C 7.644531 -0.273438 6.625 0.21875 5.375 0.21875 C 3.976562 0.21875 2.851562 -0.332031 2 -1.4375 C 1.15625 -2.539062 0.734375 -4.078125 0.734375 -6.046875 Z M 3.90625 -5.828125 C 3.90625 -4.703125 4.097656 -3.84375 4.484375 -3.25 C 4.878906 -2.65625 5.453125 -2.359375 6.203125 -2.359375 C 7.179688 -2.359375 7.875 -2.773438 8.28125 -3.609375 L 8.28125 -8.3125 C 7.882812 -9.144531 7.195312 -9.5625 6.21875 -9.5625 C 4.675781 -9.5625 3.90625 -8.316406 3.90625 -5.828125 Z M 3.90625 -5.828125 "/></g></g></g><g fill="#ffffff" fill-opacity="1"><g transform="translate(118.608253, 25.617302)"><g><path d="M 7.6875 -3.296875 C 7.6875 -3.679688 7.492188 -3.984375 7.109375 -4.203125 C 6.722656 -4.429688 6.101562 -4.632812 5.25 -4.8125 C 2.414062 -5.40625 1 -6.613281 1 -8.4375 C 1 -9.488281 1.4375 -10.367188 2.3125 -11.078125 C 3.1875 -11.796875 4.332031 -12.15625 5.75 -12.15625 C 7.269531 -12.15625 8.484375 -11.796875 9.390625 -11.078125 C 10.296875 -10.367188 10.75 -9.441406 10.75 -8.296875 L 7.5625 -8.296875 C 7.5625 -8.753906 7.414062 -9.128906 7.125 -9.421875 C 6.832031 -9.722656 6.375 -9.875 5.75 -9.875 C 5.207031 -9.875 4.789062 -9.753906 4.5 -9.515625 C 4.207031 -9.273438 4.0625 -8.96875 4.0625 -8.59375 C 4.0625 -8.238281 4.226562 -7.953125 4.5625 -7.734375 C 4.894531 -7.515625 5.457031 -7.328125 6.25 -7.171875 C 7.039062 -7.015625 7.707031 -6.835938 8.25 -6.640625 C 9.9375 -6.015625 10.78125 -4.941406 10.78125 -3.421875 C 10.78125 -2.335938 10.3125 -1.457031 9.375 -0.78125 C 8.445312 -0.113281 7.242188 0.21875 5.765625 0.21875 C 4.765625 0.21875 3.875 0.0390625 3.09375 -0.3125 C 2.320312 -0.664062 1.71875 -1.15625 1.28125 -1.78125 C 0.84375 -2.40625 0.625 -3.078125 0.625 -3.796875 L 3.640625 -3.796875 C 3.671875 -3.222656 3.878906 -2.785156 4.265625 -2.484375 C 4.648438 -2.191406 5.171875 -2.046875 5.828125 -2.046875 C 6.441406 -2.046875 6.90625 -2.160156 7.21875 -2.390625 C 7.53125 -2.617188 7.6875 -2.921875 7.6875 -3.296875 Z M 7.6875 -3.296875 "/></g></g></g></svg>