<svg xmlns="http://www.w3.org/2000/svg" xmlns:xlink="http://www.w3.org/1999/xlink" width="178" zoomAndPan="magnify" viewBox="0 0 133.5 36.000001" height="48" preserveAspectRatio="xMidYMid meet" version="1.0"><defs><g/><clipPath id="8448577b57"><path d="M 5.0625 4 L 32.792969 4 L 32.792969 31 L 5.0625 31 Z M 5.0625 4 " clip-rule="nonzero"/></clipPath><clipPath id="f4a0d75bb3"><path d="M 5.0625 3.503906 L 32.792969 3.503906 L 32.792969 31.234375 L 5.0625 31.234375 Z M 5.0625 3.503906 " clip-rule="nonzero"/></clipPath></defs><g clip-path="url(#8448577b57)"><path fill="#7bc8b3" d="M 31.96875 15.386719 L 24.335938 15.386719 L 29.726562 9.992188 C 29.300781 9.394531 28.832031 8.835938 28.316406 8.320312 C 27.800781 7.804688 27.242188 7.332031 26.648438 6.910156 L 21.25 12.300781 L 21.25 4.671875 C 20.542969 4.558594 19.820312 4.492188 19.078125 4.492188 L 19.066406 4.492188 C 18.324219 4.492188 17.597656 4.558594 16.890625 4.671875 L 16.890625 12.304688 L 11.496094 6.910156 C 10.898438 7.332031 10.339844 7.804688 9.824219 8.320312 C 9.308594 8.835938 8.835938 9.398438 8.410156 9.992188 L 13.804688 15.386719 L 6.171875 15.386719 C 6.171875 15.386719 5.992188 16.824219 5.992188 17.5625 L 5.992188 17.570312 C 5.992188 18.3125 6.058594 19.042969 6.171875 19.746094 L 13.808594 19.746094 L 8.414062 25.140625 C 9.261719 26.335938 10.300781 27.375 11.492188 28.226562 L 16.890625 22.832031 L 16.890625 30.464844 C 17.597656 30.578125 18.324219 30.644531 19.0625 30.644531 L 19.082031 30.644531 C 19.820312 30.644531 20.542969 30.578125 21.25 30.464844 L 21.25 22.832031 L 26.648438 28.226562 C 27.242188 27.816406 27.800781 27.339844 28.3125 26.820312 L 28.316406 26.820312 C 28.832031 26.3125 29.304688 25.757812 29.730469 25.152344 L 24.335938 19.757812 L 31.96875 19.757812 C 32.082031 19.054688 32.148438 18.335938 32.148438 17.601562 L 32.148438 17.566406 C 32.148438 16.828125 32.082031 16.105469 31.96875 15.398438 Z M 31.96875 15.386719 " fill-opacity="1" fill-rule="nonzero"/></g><path fill="#ffffff" d="M 21.835938 17.570312 C 21.835938 18.394531 21.683594 19.183594 21.410156 19.910156 C 20.683594 20.183594 19.894531 20.335938 19.074219 20.335938 L 19.066406 20.335938 C 18.242188 20.335938 17.457031 20.183594 16.730469 19.910156 C 16.457031 19.183594 16.304688 18.394531 16.304688 17.570312 L 16.304688 17.5625 C 16.304688 16.742188 16.453125 15.953125 16.730469 15.226562 C 17.457031 14.953125 18.242188 14.800781 19.066406 14.800781 L 19.074219 14.800781 C 19.894531 14.800781 20.683594 14.953125 21.410156 15.226562 C 21.683594 15.953125 21.835938 16.742188 21.835938 17.566406 Z M 21.835938 17.570312 " fill-opacity="1" fill-rule="nonzero"/><g clip-path="url(#f4a0d75bb3)"><path fill="#000000" d="M 19.082031 31.515625 C 18.316406 31.515625 17.539062 31.453125 16.753906 31.328125 C 16.332031 31.257812 16.019531 30.894531 16.019531 30.464844 L 16.019531 24.9375 L 12.113281 28.84375 C 11.808594 29.144531 11.335938 29.183594 10.988281 28.9375 C 9.710938 28.027344 8.605469 26.921875 7.703125 25.648438 C 7.457031 25.300781 7.496094 24.828125 7.796875 24.527344 L 11.703125 20.617188 L 6.171875 20.617188 C 5.746094 20.617188 5.378906 20.308594 5.3125 19.882812 C 5.1875 19.09375 5.121094 18.316406 5.121094 17.574219 C 5.121094 16.777344 5.300781 15.339844 5.308594 15.28125 C 5.363281 14.84375 5.734375 14.515625 6.171875 14.515625 L 11.699219 14.515625 L 7.796875 10.609375 C 7.496094 10.308594 7.453125 9.832031 7.699219 9.488281 C 8.15625 8.851562 8.660156 8.25 9.207031 7.703125 C 9.765625 7.148438 10.367188 6.640625 10.996094 6.199219 C 11.339844 5.953125 11.8125 5.992188 12.113281 6.292969 L 16.019531 10.199219 L 16.019531 4.667969 C 16.019531 4.242188 16.332031 3.875 16.753906 3.808594 C 18.375 3.550781 19.785156 3.554688 21.386719 3.808594 C 21.808594 3.878906 22.121094 4.242188 22.121094 4.667969 L 22.121094 10.199219 L 26.03125 6.292969 C 26.332031 5.988281 26.808594 5.949219 27.15625 6.199219 C 27.796875 6.65625 28.390625 7.164062 28.933594 7.707031 C 29.46875 8.242188 29.976562 8.839844 30.4375 9.484375 C 30.683594 9.832031 30.644531 10.308594 30.34375 10.609375 L 26.4375 14.515625 L 31.96875 14.515625 C 32.425781 14.515625 32.796875 14.863281 32.835938 15.308594 C 32.957031 16.078125 33.019531 16.835938 33.019531 17.566406 C 33.019531 18.351562 32.957031 19.105469 32.828125 19.898438 C 32.761719 20.320312 32.398438 20.632812 31.96875 20.632812 L 26.441406 20.632812 L 30.347656 24.535156 C 30.644531 24.835938 30.6875 25.308594 30.441406 25.65625 C 29.988281 26.300781 29.480469 26.902344 28.929688 27.441406 C 28.910156 27.460938 28.894531 27.472656 28.875 27.488281 C 28.328125 28.042969 27.742188 28.53125 27.136719 28.949219 C 26.792969 29.183594 26.328125 29.140625 26.027344 28.84375 L 22.121094 24.9375 L 22.121094 30.464844 C 22.121094 30.894531 21.808594 31.257812 21.386719 31.328125 C 20.601562 31.453125 19.828125 31.515625 19.082031 31.515625 Z M 17.761719 29.703125 C 18.660156 29.796875 19.503906 29.792969 20.378906 29.703125 L 20.378906 22.832031 C 20.378906 22.480469 20.589844 22.164062 20.914062 22.027344 C 21.242188 21.894531 21.617188 21.96875 21.867188 22.21875 L 26.730469 27.082031 C 27.058594 26.816406 27.382812 26.527344 27.691406 26.210938 C 27.714844 26.1875 27.738281 26.167969 27.761719 26.144531 C 28.046875 25.859375 28.320312 25.554688 28.578125 25.234375 L 23.71875 20.375 C 23.46875 20.125 23.394531 19.753906 23.53125 19.425781 C 23.664062 19.101562 23.984375 18.890625 24.335938 18.890625 L 31.207031 18.890625 C 31.253906 18.453125 31.277344 18.027344 31.277344 17.601562 C 31.277344 17.15625 31.253906 16.710938 31.203125 16.261719 L 24.335938 16.261719 C 23.980469 16.261719 23.664062 16.050781 23.53125 15.722656 C 23.394531 15.398438 23.46875 15.023438 23.71875 14.773438 L 28.574219 9.914062 C 28.296875 9.566406 28.003906 9.242188 27.699219 8.941406 C 27.394531 8.632812 27.070312 8.339844 26.726562 8.0625 L 21.867188 12.917969 C 21.617188 13.167969 21.242188 13.242188 20.914062 13.105469 C 20.589844 12.972656 20.378906 12.65625 20.378906 12.300781 L 20.378906 5.433594 C 19.480469 5.335938 18.648438 5.339844 17.761719 5.433594 L 17.761719 12.304688 C 17.761719 12.65625 17.550781 12.976562 17.222656 13.109375 C 16.898438 13.242188 16.523438 13.171875 16.273438 12.921875 L 11.414062 8.0625 C 11.078125 8.332031 10.753906 8.625 10.441406 8.9375 C 10.132812 9.246094 9.839844 9.570312 9.566406 9.914062 L 14.421875 14.773438 C 14.671875 15.023438 14.746094 15.398438 14.609375 15.722656 C 14.476562 16.046875 14.15625 16.261719 13.804688 16.261719 L 6.953125 16.261719 C 6.910156 16.710938 6.867188 17.234375 6.867188 17.5625 C 6.867188 17.988281 6.890625 18.429688 6.9375 18.875 L 13.808594 18.875 C 14.160156 18.875 14.476562 19.085938 14.613281 19.414062 C 14.746094 19.738281 14.671875 20.113281 14.421875 20.363281 L 9.566406 25.222656 C 10.113281 25.902344 10.730469 26.523438 11.414062 27.074219 L 16.273438 22.21875 C 16.523438 21.96875 16.898438 21.894531 17.226562 22.027344 C 17.550781 22.164062 17.761719 22.480469 17.761719 22.832031 Z M 17.761719 29.703125 " fill-opacity="1" fill-rule="nonzero"/></g><path fill="#000000" d="M 19.074219 21.054688 C 18.207031 21.054688 17.359375 20.902344 16.550781 20.597656 C 16.316406 20.507812 16.128906 20.324219 16.042969 20.089844 C 15.738281 19.28125 15.582031 18.433594 15.582031 17.570312 C 15.582031 16.699219 15.738281 15.855469 16.042969 15.046875 C 16.128906 14.8125 16.316406 14.628906 16.550781 14.539062 C 18.175781 13.929688 19.996094 13.933594 21.59375 14.542969 C 21.828125 14.628906 22.011719 14.8125 22.101562 15.050781 C 22.402344 15.855469 22.558594 16.703125 22.558594 17.566406 L 22.558594 17.570312 C 22.558594 18.429688 22.402344 19.277344 22.101562 20.085938 C 22.011719 20.324219 21.828125 20.507812 21.589844 20.597656 C 20.789062 20.902344 19.941406 21.054688 19.074219 21.054688 Z M 21.285156 19.78125 L 21.296875 19.78125 Z M 17.546875 19.09375 C 18.546875 19.386719 19.621094 19.382812 20.597656 19.09375 C 20.742188 18.597656 20.816406 18.089844 20.816406 17.570312 L 20.816406 17.566406 C 20.816406 17.046875 20.742188 16.535156 20.597656 16.042969 C 19.609375 15.753906 18.527344 15.753906 17.542969 16.042969 C 17.402344 16.535156 17.324219 17.046875 17.324219 17.5625 C 17.328125 18.085938 17.402344 18.597656 17.546875 19.09375 Z M 17.546875 19.09375 " fill-opacity="1" fill-rule="nonzero"/><g fill="#000000" fill-opacity="1"><g transform="translate(39.882861, 27.182003)"><g><path d="M 5.671875 -3.046875 L 14.953125 -3.046875 L 14.953125 0 L 0.921875 0 L 0.921875 -2.21875 L 10.03125 -15.34375 L 0.9375 -15.34375 L 0.9375 -18.421875 L 14.75 -18.421875 L 14.75 -16.234375 Z M 5.671875 -3.046875 "/></g></g><g transform="translate(55.580423, 27.182003)"><g><path d="M 9.328125 0 C 9.160156 -0.332031 9.039062 -0.742188 8.96875 -1.234375 C 8.082031 -0.242188 6.929688 0.25 5.515625 0.25 C 4.171875 0.25 3.054688 -0.132812 2.171875 -0.90625 C 1.296875 -1.6875 0.859375 -2.664062 0.859375 -3.84375 C 0.859375 -5.289062 1.394531 -6.398438 2.46875 -7.171875 C 3.539062 -7.953125 5.097656 -8.347656 7.140625 -8.359375 L 8.8125 -8.359375 L 8.8125 -9.140625 C 8.8125 -9.773438 8.648438 -10.28125 8.328125 -10.65625 C 8.003906 -11.039062 7.492188 -11.234375 6.796875 -11.234375 C 6.179688 -11.234375 5.695312 -11.082031 5.34375 -10.78125 C 4.988281 -10.488281 4.8125 -10.085938 4.8125 -9.578125 L 1.15625 -9.578125 C 1.15625 -10.367188 1.398438 -11.097656 1.890625 -11.765625 C 2.378906 -12.441406 3.070312 -12.972656 3.96875 -13.359375 C 4.863281 -13.742188 5.867188 -13.9375 6.984375 -13.9375 C 8.671875 -13.9375 10.007812 -13.507812 11 -12.65625 C 11.988281 -11.8125 12.484375 -10.625 12.484375 -9.09375 L 12.484375 -3.15625 C 12.492188 -1.863281 12.675781 -0.882812 13.03125 -0.21875 L 13.03125 0 Z M 6.3125 -2.546875 C 6.851562 -2.546875 7.347656 -2.664062 7.796875 -2.90625 C 8.253906 -3.144531 8.59375 -3.46875 8.8125 -3.875 L 8.8125 -6.21875 L 7.453125 -6.21875 C 5.617188 -6.21875 4.644531 -5.585938 4.53125 -4.328125 L 4.515625 -4.109375 C 4.515625 -3.648438 4.675781 -3.273438 5 -2.984375 C 5.320312 -2.691406 5.757812 -2.546875 6.3125 -2.546875 Z M 6.3125 -2.546875 "/></g></g><g transform="translate(69.469161, 27.182003)"><g><path d="M 13.71875 -6.71875 C 13.71875 -4.601562 13.238281 -2.910156 12.28125 -1.640625 C 11.332031 -0.378906 10.039062 0.25 8.40625 0.25 C 7.03125 0.25 5.914062 -0.226562 5.0625 -1.1875 L 5.0625 5.265625 L 1.40625 5.265625 L 1.40625 -13.6875 L 4.796875 -13.6875 L 4.921875 -12.34375 C 5.804688 -13.40625 6.960938 -13.9375 8.390625 -13.9375 C 10.078125 -13.9375 11.382812 -13.3125 12.3125 -12.0625 C 13.25 -10.820312 13.71875 -9.101562 13.71875 -6.90625 Z M 10.0625 -6.984375 C 10.0625 -8.253906 9.835938 -9.234375 9.390625 -9.921875 C 8.941406 -10.617188 8.285156 -10.96875 7.421875 -10.96875 C 6.273438 -10.96875 5.488281 -10.53125 5.0625 -9.65625 L 5.0625 -4.046875 C 5.507812 -3.140625 6.304688 -2.6875 7.453125 -2.6875 C 9.191406 -2.6875 10.0625 -4.117188 10.0625 -6.984375 Z M 10.0625 -6.984375 "/></g></g><g transform="translate(84.0536, 27.182003)"><g><path d="M 5.265625 0 L 1.59375 0 L 1.59375 -13.6875 L 5.265625 -13.6875 Z M 1.375 -17.234375 C 1.375 -17.773438 1.554688 -18.222656 1.921875 -18.578125 C 2.296875 -18.929688 2.796875 -19.109375 3.421875 -19.109375 C 4.046875 -19.109375 4.546875 -18.929688 4.921875 -18.578125 C 5.296875 -18.222656 5.484375 -17.773438 5.484375 -17.234375 C 5.484375 -16.671875 5.289062 -16.210938 4.90625 -15.859375 C 4.53125 -15.503906 4.035156 -15.328125 3.421875 -15.328125 C 2.804688 -15.328125 2.3125 -15.503906 1.9375 -15.859375 C 1.5625 -16.210938 1.375 -16.671875 1.375 -17.234375 Z M 1.375 -17.234375 "/></g></g><g transform="translate(90.922074, 27.182003)"><g><path d="M 7.703125 0.25 C 5.691406 0.25 4.054688 -0.363281 2.796875 -1.59375 C 1.535156 -2.820312 0.90625 -4.460938 0.90625 -6.515625 L 0.90625 -6.875 C 0.90625 -8.25 1.171875 -9.476562 1.703125 -10.5625 C 2.234375 -11.644531 2.984375 -12.476562 3.953125 -13.0625 C 4.929688 -13.644531 6.046875 -13.9375 7.296875 -13.9375 C 9.171875 -13.9375 10.644531 -13.34375 11.71875 -12.15625 C 12.789062 -10.976562 13.328125 -9.304688 13.328125 -7.140625 L 13.328125 -5.65625 L 4.609375 -5.65625 C 4.734375 -4.757812 5.09375 -4.039062 5.6875 -3.5 C 6.28125 -2.957031 7.03125 -2.6875 7.9375 -2.6875 C 9.351562 -2.6875 10.457031 -3.195312 11.25 -4.21875 L 13.046875 -2.21875 C 12.492188 -1.4375 11.75 -0.828125 10.8125 -0.390625 C 9.875 0.0351562 8.835938 0.25 7.703125 0.25 Z M 7.28125 -10.984375 C 6.5625 -10.984375 5.972656 -10.738281 5.515625 -10.25 C 5.066406 -9.757812 4.78125 -9.054688 4.65625 -8.140625 L 9.734375 -8.140625 L 9.734375 -8.4375 C 9.722656 -9.25 9.503906 -9.875 9.078125 -10.3125 C 8.660156 -10.757812 8.0625 -10.984375 7.28125 -10.984375 Z M 7.28125 -10.984375 "/></g></g><g transform="translate(104.924654, 27.182003)"><g><path d="M 9.09375 -10.265625 C 8.59375 -10.328125 8.15625 -10.359375 7.78125 -10.359375 C 6.394531 -10.359375 5.488281 -9.890625 5.0625 -8.953125 L 5.0625 0 L 1.40625 0 L 1.40625 -13.6875 L 4.859375 -13.6875 L 4.953125 -12.0625 C 5.691406 -13.3125 6.707031 -13.9375 8 -13.9375 C 8.40625 -13.9375 8.785156 -13.882812 9.140625 -13.78125 Z M 9.09375 -10.265625 "/></g></g></g></svg>